<svg width="12" height="20" viewBox="0 0 12 20" fill="none" xmlns="http://www.w3.org/2000/svg">
<path fill-rule="evenodd" clip-rule="evenodd" d="M0.968875 0.468876C1.03854 0.399031 1.12131 0.343617 1.21243 0.305807C1.30354 0.267997 1.40122 0.248535 1.49988 0.248535C1.59853 0.248535 1.69621 0.267997 1.78733 0.305807C1.87844 0.343617 1.96121 0.399031 2.03088 0.468876L11.0309 9.46888C11.1007 9.53854 11.1561 9.62131 11.1939 9.71243C11.2318 9.80354 11.2512 9.90122 11.2512 9.99988C11.2512 10.0985 11.2318 10.1962 11.1939 10.2873C11.1561 10.3784 11.1007 10.4612 11.0309 10.5309L2.03088 19.5309C1.89005 19.6717 1.69904 19.7508 1.49988 19.7508C1.30071 19.7508 1.10971 19.6717 0.968875 19.5309C0.828045 19.39 0.748928 19.199 0.748928 18.9999C0.748928 18.8007 0.828045 18.6097 0.968875 18.4689L9.43938 9.99988L0.968875 1.53088C0.899031 1.46121 0.843616 1.37844 0.805806 1.28733C0.767997 1.19621 0.748535 1.09853 0.748535 0.999876C0.748535 0.901225 0.767997 0.803543 0.805806 0.712426C0.843616 0.621308 0.899031 0.538544 0.968875 0.468876Z" fill="url(#paint0_linear_1494_7986)"/>
<defs>
<linearGradient id="paint0_linear_1494_7986" x1="0.748535" y1="13.134" x2="11.2512" y2="13.134" gradientUnits="userSpaceOnUse">
<stop stop-color="#8D49F7"/>
<stop offset="1" stop-color="#6B53FF"/>
</linearGradient>
</defs>
</svg>
