<svg width="32" height="24" viewBox="0 0 32 24" fill="none" xmlns="http://www.w3.org/2000/svg">
<mask id="mask0_230_12096" style="mask-type:alpha" maskUnits="userSpaceOnUse" x="0" y="0" width="32" height="24">
<rect width="32" height="24" fill="white"/>
</mask>
<g mask="url(#mask0_230_12096)">
<path fill-rule="evenodd" clip-rule="evenodd" d="M22 0H32V24H22V0Z" fill="#58A5FF"/>
<path fill-rule="evenodd" clip-rule="evenodd" d="M0 0H12V24H0V0Z" fill="#58A5FF"/>
<path fill-rule="evenodd" clip-rule="evenodd" d="M10 0H22V24H10V0Z" fill="white"/>
<path fill-rule="evenodd" clip-rule="evenodd" d="M11.7686 15.7181L12.2903 16.4012L14.6597 13.1893V12.6206L11.7686 15.7181Z" fill="#6C301F"/>
<path d="M13.4043 12.1356L13.5775 11.897C15.8213 13.5841 17.411 14.8792 18.2998 15.9584L17.7448 16.4156C16.9 15.3898 15.6064 13.7913 13.4043 12.1356Z" fill="#979797"/>
<path d="M17.0208 10.7252L16.7627 10.475L18.1775 9.01579L18.4874 9.31691L19.9562 7.94922L20.2012 8.21234L18.4821 9.81306L18.1851 9.52443L17.0208 10.7252Z" fill="#979797"/>
<path fill-rule="evenodd" clip-rule="evenodd" d="M12.5058 8.44521C12.4303 8.1169 12.3451 7.71143 12.3451 7.71143C12.1557 8.14357 12.096 8.53674 12.1721 8.88831C12.0916 8.99912 12.0186 9.10291 11.9533 9.19974C11.7496 8.93064 11.4954 8.42735 11.4954 8.42735C11.5043 8.57389 11.5002 8.7234 11.4963 8.86857C11.4872 9.20969 11.4787 9.5269 11.6388 9.72554L11.6369 9.7295C11.6049 9.79531 11.5747 9.861 11.5461 9.92655C11.3253 9.70642 10.9589 9.30951 10.9589 9.30951C10.9876 9.78548 11.1193 10.1606 11.3587 10.4282C11.3154 10.5677 11.2796 10.7064 11.2513 10.8443C11.0662 10.6528 10.8876 10.4636 10.8876 10.4636C10.9138 10.898 10.9865 11.1849 11.1752 11.426C11.1714 11.4946 11.1695 11.5629 11.1694 11.631C10.9738 11.4292 10.7749 11.2185 10.7749 11.2185C10.8025 11.6768 10.9812 11.9784 11.2166 12.2295C11.24 12.3746 11.2719 12.5182 11.3122 12.6601L11.3337 12.7349C11.0675 12.6063 10.7766 12.4602 10.7766 12.4602C10.9503 12.8607 11.2039 13.0814 11.4923 13.2357C11.554 13.4152 11.619 13.5886 11.6872 13.7556C11.375 13.6708 10.9087 13.5312 10.9087 13.5312C11.1853 13.9499 11.5245 14.1162 11.8889 14.2119C11.9634 14.3675 12.0407 14.5162 12.1207 14.6573C11.8248 14.5743 11.4776 14.4704 11.4776 14.4704C11.7461 14.877 12.0738 15.0456 12.4264 15.1426C12.6589 15.4732 12.9079 15.7448 13.1677 15.9482C12.8814 16.0782 12.5209 16.2338 12.5209 16.2338C12.928 16.3548 13.2533 16.3084 13.5502 16.1937C13.5619 16.1996 13.5735 16.2053 13.5852 16.2109C13.7133 16.2723 13.8568 16.3302 14.0187 16.3866C13.7839 16.4911 13.5603 16.5876 13.5603 16.5876C13.958 16.7058 14.2776 16.6643 14.569 16.5554L14.6006 16.5641C14.7435 16.603 14.8889 16.6403 15.0806 16.6878C14.9538 16.6564 15.4217 16.7718 15.5167 16.7959C15.8209 16.8733 15.9941 16.9277 16.0772 16.9745C16.085 16.9789 16.0907 16.9825 16.0942 16.9848L16.0943 16.9848C16.0979 16.9871 16.0994 16.988 16.0986 16.987L16.3313 16.8179C16.3043 16.7808 16.2668 16.7512 16.2184 16.7239C16.1043 16.6596 15.9191 16.6016 15.5876 16.5172C15.4933 16.4932 15.0401 16.3814 15.1428 16.4069C14.9565 16.3607 14.8148 16.3243 14.6762 16.2866C14.6348 16.2753 14.5944 16.2641 14.555 16.2529C14.5881 15.9471 14.5495 15.6301 14.341 15.2769C14.341 15.2769 14.2503 15.8285 14.1887 16.1407C14.0048 16.0793 13.8463 16.0171 13.7094 15.9515C13.6632 15.9294 13.6171 15.9046 13.5711 15.8774C13.5527 15.5654 13.4611 15.255 13.19 14.9383C13.19 14.9383 13.1941 15.289 13.1925 15.5929C13.0035 15.4202 12.8199 15.2056 12.645 14.9536L12.7675 15.0185C12.781 14.6294 12.7211 14.2459 12.3844 13.8525C12.3844 13.8525 12.3888 14.2318 12.3867 14.5433C12.2774 14.3524 12.1727 14.1462 12.0734 13.926C12.1656 13.6235 12.1878 13.2975 12.0397 12.9025C12.0397 12.9025 11.9517 13.1534 11.8594 13.4064C11.8323 13.3344 11.8058 13.2613 11.7799 13.1871C11.9685 12.8706 12.0895 12.52 11.9996 12.0375C11.9996 12.0375 11.7852 12.4188 11.6218 12.6953C11.6107 12.6576 11.5997 12.6197 11.5889 12.5815C11.5545 12.4604 11.5267 12.338 11.5056 12.2143C11.7744 11.9866 11.9916 11.7029 12.0687 11.2395C12.0687 11.2395 11.7093 11.5482 11.4589 11.7528C11.4554 11.6499 11.4566 11.5462 11.4624 11.4418C11.7517 11.2661 12.0009 11.0263 12.1513 10.6003C12.1513 10.6003 11.7969 10.8104 11.5202 10.967C11.5399 10.8623 11.5642 10.757 11.5931 10.651L11.5935 10.6612C11.9372 10.4783 12.2394 10.2346 12.4117 9.74642C12.4117 9.74642 12.0556 9.95754 11.7787 10.1142C11.8146 10.0282 11.8535 9.94183 11.8956 9.85516C11.9457 9.75211 12.0167 9.62914 12.1087 9.48647C12.4155 9.38925 12.7012 9.22072 12.9441 8.86652C12.9441 8.86652 12.6987 8.93532 12.4443 9.00342C12.5918 8.80246 12.7649 8.57763 12.9633 8.32919L12.7386 8.14969C12.6568 8.25206 12.5792 8.35056 12.5058 8.44521Z" fill="#5AB92D"/>
<path fill-rule="evenodd" clip-rule="evenodd" d="M19.6338 8.44521C19.7093 8.1169 19.7945 7.71143 19.7945 7.71143C19.9839 8.14357 20.0436 8.53674 19.9675 8.88831C20.0481 8.99912 20.121 9.10291 20.1863 9.19974C20.39 8.93064 20.6442 8.42735 20.6442 8.42735C20.6354 8.57389 20.6394 8.7234 20.6433 8.86857C20.6525 9.20969 20.661 9.5269 20.5008 9.72554L20.5027 9.7295C20.5347 9.79531 20.565 9.861 20.5936 9.92655C20.8144 9.70642 21.1807 9.30951 21.1807 9.30951C21.1521 9.78548 21.0203 10.1606 20.781 10.4282C20.8243 10.5677 20.86 10.7064 20.8884 10.8443C21.0735 10.6528 21.252 10.4636 21.252 10.4636C21.2259 10.898 21.1532 11.1849 20.9644 11.426C20.9682 11.4946 20.9702 11.5629 20.9703 11.631C21.1659 11.4292 21.3647 11.2185 21.3647 11.2185C21.3372 11.6768 21.1584 11.9784 20.923 12.2295C20.8997 12.3746 20.8678 12.5182 20.8275 12.6601L20.806 12.7349C21.0721 12.6063 21.363 12.4602 21.363 12.4602C21.1894 12.8607 20.9358 13.0814 20.6473 13.2357C20.5857 13.4152 20.5206 13.5886 20.4524 13.7556C20.7647 13.6708 21.2309 13.5312 21.2309 13.5312C20.9544 13.9499 20.6152 14.1162 20.2507 14.2119C20.1763 14.3675 20.0989 14.5162 20.019 14.6573C20.3148 14.5743 20.6621 14.4704 20.6621 14.4704C20.3935 14.877 20.0658 15.0456 19.7133 15.1426C19.4807 15.4732 19.2317 15.7448 18.972 15.9482C19.2582 16.0782 19.6187 16.2338 19.6187 16.2338C19.2117 16.3548 18.8864 16.3084 18.5894 16.1937C18.5778 16.1996 18.5661 16.2053 18.5545 16.2109C18.4263 16.2723 18.2828 16.3302 18.1209 16.3866C18.3557 16.4911 18.5793 16.5876 18.5793 16.5876C18.1817 16.7058 17.8621 16.6643 17.5707 16.5554L17.5391 16.5641C17.3962 16.603 17.2507 16.6403 17.0591 16.6878C17.1858 16.6564 16.718 16.7718 16.623 16.7959C16.3188 16.8733 16.1456 16.9277 16.0624 16.9745C16.0547 16.9789 16.049 16.9825 16.0454 16.9848L16.0454 16.9848C16.0418 16.9871 16.0403 16.988 16.0411 16.987L15.8084 16.8179C15.8353 16.7808 15.8728 16.7512 15.9212 16.7239C16.0354 16.6596 16.2205 16.6016 16.552 16.5172C16.6463 16.4932 17.0995 16.3814 16.9969 16.4069C17.1831 16.3607 17.3248 16.3243 17.4635 16.2866C17.5048 16.2753 17.5452 16.2641 17.5847 16.2529C17.5515 15.9471 17.5901 15.6301 17.7986 15.2769C17.7986 15.2769 17.8894 15.8285 17.951 16.1407C18.1349 16.0793 18.2933 16.0171 18.4302 15.9515C18.4765 15.9294 18.5226 15.9046 18.5685 15.8774C18.5869 15.5654 18.6786 15.255 18.9496 14.9383C18.9496 14.9383 18.9456 15.289 18.9471 15.5929C19.1361 15.4202 19.3197 15.2056 19.4947 14.9536L19.3721 15.0185C19.3586 14.6294 19.4186 14.2459 19.7552 13.8525C19.7552 13.8525 19.7508 14.2318 19.7529 14.5433C19.8622 14.3524 19.967 14.1462 20.0662 13.926C19.974 13.6235 19.9518 13.2975 20.0999 12.9025C20.0999 12.9025 20.188 13.1534 20.2803 13.4064C20.3073 13.3344 20.3338 13.2613 20.3597 13.1871C20.1712 12.8706 20.0502 12.52 20.1401 12.0375C20.1401 12.0375 20.3544 12.4188 20.5179 12.6953C20.529 12.6576 20.54 12.6197 20.5508 12.5815C20.5852 12.4604 20.613 12.338 20.634 12.2143C20.3653 11.9866 20.148 11.7029 20.0709 11.2395C20.0709 11.2395 20.4303 11.5482 20.6808 11.7528C20.6842 11.6499 20.6831 11.5462 20.6773 11.4418C20.3879 11.2661 20.1387 11.0263 19.9884 10.6003C19.9884 10.6003 20.3428 10.8104 20.6194 10.967C20.5998 10.8623 20.5755 10.757 20.5465 10.651L20.5461 10.6612C20.2024 10.4783 19.9003 10.2346 19.7279 9.74642C19.7279 9.74642 20.084 9.95754 20.361 10.1142C20.3251 10.0282 20.2861 9.94183 20.244 9.85516C20.194 9.75211 20.1229 9.62914 20.031 9.48647C19.7241 9.38925 19.4385 9.22072 19.1955 8.86652C19.1955 8.86652 19.4409 8.93532 19.6954 9.00342C19.5478 8.80246 19.3748 8.57763 19.1763 8.32919L19.401 8.14969C19.4828 8.25206 19.5604 8.35056 19.6338 8.44521Z" fill="#5AB92D"/>
<path fill-rule="evenodd" clip-rule="evenodd" d="M13.4175 9.32273L14.6246 12.5219H13.7373C13.7373 12.5219 13.4175 13.5316 14.0211 13.5316C14.6246 13.5316 17.7351 13.5316 17.7351 13.5316C17.7351 13.5316 18.1394 13.2784 17.9373 12.5219C17.7351 11.7655 16.7135 9.67723 16.7135 9.67723C16.7135 9.67723 17.15 9.33066 17.15 9.07376C17.15 8.81687 16.7135 8.78857 16.7135 8.78857H13.9579C13.6062 8.84557 13.4175 9.32273 13.4175 9.32273Z" fill="#EFE298"/>
<path d="M14.4443 10.5007L16.3193 10.3842L14.4443 10.5007Z" fill="#C5A042"/>
<path d="M14.4443 10.5007L16.3193 10.3842" stroke="#B47D00" stroke-width="0.5"/>
<path d="M14.9004 11.5207L16.7753 11.4043L14.9004 11.5207Z" fill="#C5A042"/>
<path d="M14.9004 11.5207L16.7753 11.4043" stroke="#B47D00" stroke-width="0.5"/>
<path d="M15.2568 12.5412L17.1318 12.4248L15.2568 12.5412Z" fill="#C5A042"/>
<path d="M15.2568 12.5412L17.1318 12.4248" stroke="#B47D00" stroke-width="0.5"/>
<path fill-rule="evenodd" clip-rule="evenodd" d="M15.8805 7.5874C15.8805 7.5874 15.5917 7.64606 15.5917 7.82847C15.5917 8.01088 15.5137 8.16641 15.5137 8.16641C15.5137 8.16641 15.6018 8.99837 16.2601 9.19144C16.9185 9.3845 17.3044 9.43086 17.5816 9.81813C17.8587 10.2054 18.7089 11.2987 18.3679 12.2416C18.027 13.1846 17.7593 13.6657 17.7593 13.6657C17.7593 13.6657 19.0029 12.4943 19.0029 11.9389C19.0029 11.3836 18.8191 10.8454 18.2682 10.1402C17.7172 9.43506 17.4609 9.02283 17.0505 8.7051C16.64 8.38736 16.0519 8.09418 16.0519 8.09418C16.0519 8.09418 16.2612 7.87035 16.1565 7.76511C16.0519 7.65986 15.8805 7.5874 15.8805 7.5874Z" fill="#5AB92D"/>
</g>
</svg>
