<svg width="32" height="24" viewBox="0 0 32 24" fill="none" xmlns="http://www.w3.org/2000/svg">
<mask id="mask0_230_12268" style="mask-type:alpha" maskUnits="userSpaceOnUse" x="0" y="0" width="32" height="24">
<rect width="32" height="24" fill="white"/>
</mask>
<g mask="url(#mask0_230_12268)">
<path fill-rule="evenodd" clip-rule="evenodd" d="M0 0V24H32V0H0Z" fill="#F7FCFF"/>
<mask id="mask1_230_12268" style="mask-type:alpha" maskUnits="userSpaceOnUse" x="0" y="0" width="32" height="24">
<path fill-rule="evenodd" clip-rule="evenodd" d="M0 0V24H32V0H0Z" fill="white"/>
</mask>
<g mask="url(#mask1_230_12268)">
<path fill-rule="evenodd" clip-rule="evenodd" d="M0 0V8H32V0H0Z" fill="#3D58DB"/>
<path fill-rule="evenodd" clip-rule="evenodd" d="M0 16V24H32V16H0Z" fill="#3D58DB"/>
<path d="M19.4252 11.8581C19.4252 13.8694 17.7947 15.4999 15.7834 15.4999C13.7721 15.4999 12.1416 13.8694 12.1416 11.8581C12.1416 9.84679 13.7721 8.21631 15.7834 8.21631C17.7947 8.21631 19.4252 9.84679 19.4252 11.8581Z" stroke="#E8AA00"/>
<path fill-rule="evenodd" clip-rule="evenodd" d="M13.8105 9.66211C13.8105 9.66211 12.8579 11.2298 12.8579 12.306C12.8579 13.3822 13.9981 14.7349 15.792 14.7349C17.5418 14.7349 18.7995 13.6896 18.8375 12.306C18.8755 10.9223 17.8962 9.93728 17.8962 9.93728C17.8962 9.93728 18.4504 11.9294 18.1733 12.7366C17.8962 13.5439 16.9991 14.5205 15.792 14.3962C14.5848 14.2718 13.4392 12.786 13.4392 12.306C13.4392 11.826 13.8105 9.66211 13.8105 9.66211Z" fill="#1E601B"/>
<path d="M14.1602 12.3286H17.3675" stroke="#188396"/>
<path d="M14.459 11.8061H17.2185" stroke="#E8AA00"/>
<path d="M17.0493 12.4113H14.5931L15.8325 10.355L17.0493 12.4113Z" stroke="#E8AA00"/>
</g>
</g>
</svg>
