<svg width="32" height="24" viewBox="0 0 32 24" fill="none" xmlns="http://www.w3.org/2000/svg">
<mask id="mask0_1527_21018" style="mask-type:alpha" maskUnits="userSpaceOnUse" x="0" y="0" width="32" height="24">
<rect width="32" height="24" fill="white"/>
</mask>
<g mask="url(#mask0_1527_21018)">
<path fill-rule="evenodd" clip-rule="evenodd" d="M8 0H25V24H8V0Z" fill="#F7FCFF"/>
<path fill-rule="evenodd" clip-rule="evenodd" d="M24 0H32V24H24V0Z" fill="#F50101"/>
<path fill-rule="evenodd" clip-rule="evenodd" d="M0 0H8V24H0V0Z" fill="#F50101"/>
<path d="M15.7412 8.74515L15.7747 9.10709C14.7762 9.20807 14.2368 8.72021 14.2368 7.70768C14.2368 6.70297 14.7646 6.16892 15.7569 6.1626L15.759 6.52623C14.955 6.53135 14.5846 6.90614 14.5846 7.70768C14.5846 8.5014 14.9434 8.82584 15.7412 8.74515Z" fill="#A2BB6A"/>
<path d="M16.1831 8.74515L16.1496 9.10709C17.1481 9.20807 17.6875 8.72021 17.6875 7.70768C17.6875 6.70297 17.1597 6.16892 16.1674 6.1626L16.1653 6.52623C16.9693 6.53135 17.3397 6.90614 17.3397 7.70768C17.3397 8.5014 16.981 8.82584 16.1831 8.74515Z" fill="#A2BB6A"/>
<path fill-rule="evenodd" clip-rule="evenodd" d="M15.1398 17.1227C14.8527 17.2256 12.9062 17.1227 12.9062 17.1227V17.6649H14.1967C14.6273 17.6649 14.7901 17.7419 14.9394 17.8127C15.0659 17.8726 15.1828 17.9279 15.4448 17.9279C15.9552 17.9279 15.9458 17.5483 15.938 17.2323C15.9371 17.1946 15.9362 17.1579 15.9362 17.1227C15.9362 16.9885 15.9572 16.9136 15.9735 16.8553C15.9972 16.7705 16.0111 16.7209 15.9362 16.5749C15.8098 16.3287 14.6076 16.3615 14.6076 16.5749C14.6076 16.6756 14.7899 16.7803 14.9524 16.8736C15.1343 16.9781 15.2915 17.0684 15.1398 17.1227ZM16.8892 17.1227C17.1763 17.2256 19.1228 17.1227 19.1228 17.1227V17.6649H17.8323C17.4018 17.6649 17.239 17.7419 17.0896 17.8127C16.9631 17.8726 16.8462 17.9279 16.5842 17.9279C16.0739 17.9279 16.0832 17.5483 16.091 17.2323C16.092 17.1946 16.0929 17.1579 16.0929 17.1227C16.0929 16.9885 16.0719 16.9136 16.0556 16.8553C16.0318 16.7705 16.0179 16.7209 16.0929 16.5749C16.2193 16.3287 17.4214 16.3615 17.4214 16.5749C17.4214 16.6756 17.2392 16.7803 17.0767 16.8736C16.8947 16.9781 16.7376 17.0684 16.8892 17.1227Z" fill="#E31D1C"/>
<path fill-rule="evenodd" clip-rule="evenodd" d="M16.4072 17.1746C16.4072 17.1746 17.9262 17.0237 18.2697 16.4759C18.6132 15.9281 19.1854 14.9929 19.3867 14.7665C19.5879 14.5401 19.6009 15.0899 19.6009 15.0899C19.6009 15.0899 19.9328 15.5607 19.9328 14.9587C19.9328 14.3567 19.6967 14.7773 19.3867 13.8715C19.0766 12.9657 18.9022 12.0772 18.9894 11.9427C19.0766 11.8082 19.2831 12.0772 19.2831 11.9427C19.2831 11.8082 19.2831 11.545 19.2831 11.545L19.6009 11.9427L19.9328 11.8167C19.9328 11.8167 20.2061 12.4019 20.3744 12.5831C20.5427 12.7642 20.6412 12.3404 20.5919 11.9427C20.5427 11.545 19.9328 11.545 19.9328 11.545C19.9328 11.545 19.1528 11.1245 19.1528 10.9483C19.1528 10.7721 19.49 10.8246 19.49 10.8246L19.3867 10.279C19.3867 10.279 19.6654 10.6104 19.7991 10.4447C19.9328 10.279 19.6009 9.98824 19.6009 9.98824H20.1301V9.73273L20.3744 9.86948L20.1301 9.31153C20.1301 9.31153 19.4134 9.41943 19.2831 9.31153C19.1528 9.20362 18.7424 8.78301 18.7424 8.78301V8.58334H18.5059L18.7424 8.18283V7.54505L19.6009 7.71621V7.24463C19.6009 7.24463 20.8095 7.83379 20.5919 8.3084C20.3744 8.78301 20.3744 9.31153 20.3744 9.31153V9.73273C20.3744 9.73273 20.4106 9.60379 20.5919 9.60379C20.7733 9.60379 20.9796 9.69749 20.9796 9.98824C20.9796 10.279 21.3489 9.86948 21.3489 9.86948V11.0791C21.3489 11.0791 21.4357 11.2099 21.6255 11.0791C21.8152 10.9483 21.7321 11.0503 21.162 11.8167C20.5919 12.5831 20.7972 12.5851 20.9796 12.3974C21.162 12.2096 21.902 11.6758 21.6255 11.9427C21.3489 12.2096 21.3305 12.7688 21.6255 12.5831C21.9204 12.3974 21.8634 12.2652 21.8634 12.5831C21.8634 12.9009 21.3444 13.9828 21.162 14.1522C20.9796 14.3217 20.8095 14.4259 20.5919 14.5962C20.3744 14.7665 20.1301 14.9678 20.1301 15.0899C20.1301 15.212 20.5919 14.9587 20.5919 14.9587L20.3744 15.7353H20.7972C20.7972 15.7353 20.4607 16.7665 19.7991 16.7665C19.1375 16.7665 18.6389 16.7665 18.5059 16.7665C18.373 16.7665 17.7724 17.0498 17.7724 17.0498L17.333 17.1746C17.333 17.1746 18.0335 17.2415 18.2697 17.4519C18.5059 17.6622 18.2697 17.8089 18.2697 17.8089C18.2697 17.8089 17.6214 17.7445 17.1374 17.5982C16.6534 17.4519 16.4072 17.7292 16.4072 17.4519C16.4072 17.1746 16.4072 17.1746 16.4072 17.1746Z" fill="#00A854"/>
<path fill-rule="evenodd" clip-rule="evenodd" d="M20.7829 8.90887C20.7829 9.00928 20.705 9.09069 20.609 9.09069C20.5129 9.09069 20.4351 9.00928 20.4351 8.90887C20.4351 8.80845 20.5129 8.72705 20.609 8.72705C20.705 8.72705 20.7829 8.80845 20.7829 8.90887ZM19.9133 9.63614C19.9133 9.73656 19.8355 9.81796 19.7394 9.81796C19.6434 9.81796 19.5655 9.73656 19.5655 9.63614C19.5655 9.53573 19.6434 9.45432 19.7394 9.45432C19.8355 9.45432 19.9133 9.53573 19.9133 9.63614ZM20.7829 9.45432C20.879 9.45432 20.9568 9.37292 20.9568 9.27251C20.9568 9.17209 20.879 9.09069 20.7829 9.09069C20.6869 9.09069 20.609 9.17209 20.609 9.27251C20.609 9.37292 20.6869 9.45432 20.7829 9.45432ZM20.4351 12.1816C20.4351 12.282 20.3572 12.3634 20.2612 12.3634C20.1651 12.3634 20.0873 12.282 20.0873 12.1816C20.0873 12.0812 20.1651 11.9998 20.2612 11.9998C20.3572 11.9998 20.4351 12.0812 20.4351 12.1816ZM19.5655 14.5452C19.6616 14.5452 19.7394 14.4638 19.7394 14.3634C19.7394 14.263 19.6616 14.1816 19.5655 14.1816C19.4695 14.1816 19.3916 14.263 19.3916 14.3634C19.3916 14.4638 19.4695 14.5452 19.5655 14.5452ZM20.9568 14.9089C20.9568 15.0093 20.879 15.0907 20.7829 15.0907C20.6869 15.0907 20.609 15.0093 20.609 14.9089C20.609 14.8085 20.6869 14.7271 20.7829 14.7271C20.879 14.7271 20.9568 14.8085 20.9568 14.9089ZM21.1307 14.7271C21.2268 14.7271 21.3046 14.6456 21.3046 14.5452C21.3046 14.4448 21.2268 14.3634 21.1307 14.3634C21.0347 14.3634 20.9568 14.4448 20.9568 14.5452C20.9568 14.6456 21.0347 14.7271 21.1307 14.7271ZM21.1307 11.9998C21.1307 12.1002 21.0529 12.1816 20.9568 12.1816C20.8608 12.1816 20.7829 12.1002 20.7829 11.9998C20.7829 11.8994 20.8608 11.818 20.9568 11.818C21.0529 11.818 21.1307 11.8994 21.1307 11.9998Z" fill="#C51918"/>
<path fill-rule="evenodd" clip-rule="evenodd" d="M15.6855 16.8545C15.6855 16.8545 12.9219 16.3083 12.7707 15.2511C12.6196 14.1938 12.6217 13.0683 12.6217 13.0683L12.3654 13.7561C12.3654 13.7561 12.3525 12.8198 12.8781 12.1518C13.4038 11.4839 12.2211 12.5944 12.2211 12.5944C12.2211 12.5944 12.8199 11.6502 13.0692 11.5603C13.3186 11.4704 12.0675 12.1518 12.0675 12.1518C12.0675 12.1518 12.4259 11.3595 12.7045 11.1354C12.9831 10.9113 12.0675 11.5603 12.0675 11.5603C12.0675 11.5603 12.2746 10.7744 12.5224 10.5869C12.7702 10.3994 11.7127 11.5603 11.7127 11.5603C11.7127 11.5603 12.2706 9.76462 12.5849 9.59704C12.8992 9.42946 12.0675 9.92627 12.0675 9.92627C12.0675 9.92627 12.5769 9.15828 13.0333 8.77649C13.4896 8.39471 12.2085 8.93929 12.3654 8.93929C12.3654 8.93929 12.8287 8.41612 13.0949 8.26845C13.361 8.12078 12.0675 8.77649 12.0675 8.77649C12.0675 8.77649 12.996 7.75183 13.2744 7.60098C13.5527 7.45012 11.9079 8.41471 11.9079 8.41471C11.9079 8.41471 12.004 7.96789 12.0455 7.64858C12.0869 7.32926 11.2834 8.52371 11.3925 9.59704C11.5016 10.6704 10.9554 8.77649 10.9554 8.77649C10.9554 8.77649 10.7356 9.18765 11.2696 10.2646L10.6908 9.45353C10.6908 9.45353 10.77 10.1896 10.9554 10.5869C11.1408 10.9843 10.4291 9.92627 10.4291 9.92627C10.4291 9.92627 10.2929 10.5869 10.4291 10.5869C10.4291 10.5869 11.2418 11.6727 11.2719 11.9893C11.3021 12.3059 10.3592 10.859 10.233 10.859C10.1068 10.859 10.0369 11.3237 10.233 11.3237C10.4291 11.3237 10.8005 11.9893 10.8005 11.9893C10.8005 11.9893 10.3178 11.6404 10.2143 11.6198C10.1108 11.5992 10.2955 11.8268 10.4291 11.9893C10.4291 11.9893 10.0515 12.2972 10.0802 12.5304C10.1088 12.7637 11.1094 12.813 11.5454 13.9203C11.5454 13.9203 10.6439 13.4435 10.4291 13.4435C10.2143 13.4435 10.775 13.9413 10.9554 14.1056C11.1358 14.2699 10.6774 13.9413 10.5532 14.1056C10.4291 14.2699 11.2397 14.9716 11.3925 14.9716C11.5454 14.9716 10.8005 14.9716 10.8005 14.9716C10.8005 14.9716 10.9985 15.2511 11.2719 15.2511C11.5454 15.2511 12.5224 15.6902 12.5224 15.8324C12.5224 15.9747 11.6982 15.6504 11.5454 15.6504C11.3925 15.6504 12.6215 16.8102 13.2744 16.8545C13.9273 16.8987 14.3399 17.074 14.6214 17.074C14.9029 17.074 15.1007 17.074 15.1007 17.074L13.7709 17.7515C13.7709 17.7515 13.6366 17.7515 14.2135 17.7515C14.7905 17.7515 15.2317 17.9119 15.4586 17.5804C15.6855 17.249 15.6855 16.8545 15.6855 16.8545Z" fill="#00A854"/>
<mask id="path-11-outside-1_1527_21018" maskUnits="userSpaceOnUse" x="11.1768" y="6.88135" width="9" height="11" fill="black">
<rect fill="white" x="11.1768" y="6.88135" width="9" height="11"/>
<path fill-rule="evenodd" clip-rule="evenodd" d="M16.0866 8.90529C16.1132 8.89021 16.128 8.88135 16.128 8.88135V8.92847C16.3205 9.03469 16.8053 9.28357 17.1205 9.28357C17.5212 9.28357 18.0658 8.88135 18.0658 8.88135L18.9771 10.1681C18.9771 10.1681 18.3634 11.4544 18.833 13.0262C19.3026 14.598 18.8081 15.81 16.7198 15.9445C16.7198 15.9445 16.3083 16.0227 16.128 16.1473V16.2625C16.128 16.2338 16.1127 16.2066 16.0866 16.181C16.0605 16.2066 16.0451 16.2338 16.0451 16.2625V16.1473C15.8648 16.0227 15.4533 15.9445 15.4533 15.9445C13.365 15.81 12.8706 14.598 13.3402 13.0262C13.8098 11.4544 13.196 10.1681 13.196 10.1681L14.1073 8.88135C14.1073 8.88135 14.652 9.28357 15.0526 9.28357C15.3678 9.28357 15.8526 9.03469 16.0451 8.92847V8.88135C16.0451 8.88135 16.0599 8.89021 16.0866 8.90529Z"/>
</mask>
<path fill-rule="evenodd" clip-rule="evenodd" d="M16.0866 8.90529C16.1132 8.89021 16.128 8.88135 16.128 8.88135V8.92847C16.3205 9.03469 16.8053 9.28357 17.1205 9.28357C17.5212 9.28357 18.0658 8.88135 18.0658 8.88135L18.9771 10.1681C18.9771 10.1681 18.3634 11.4544 18.833 13.0262C19.3026 14.598 18.8081 15.81 16.7198 15.9445C16.7198 15.9445 16.3083 16.0227 16.128 16.1473V16.2625C16.128 16.2338 16.1127 16.2066 16.0866 16.181C16.0605 16.2066 16.0451 16.2338 16.0451 16.2625V16.1473C15.8648 16.0227 15.4533 15.9445 15.4533 15.9445C13.365 15.81 12.8706 14.598 13.3402 13.0262C13.8098 11.4544 13.196 10.1681 13.196 10.1681L14.1073 8.88135C14.1073 8.88135 14.652 9.28357 15.0526 9.28357C15.3678 9.28357 15.8526 9.03469 16.0451 8.92847V8.88135C16.0451 8.88135 16.0599 8.89021 16.0866 8.90529Z" fill="#E8AA00"/>
<path d="M16.128 8.88135H17.128V7.12099L15.616 8.0224L16.128 8.88135ZM16.0866 8.90529L15.5934 9.77526L16.0866 10.0548L16.5797 9.77526L16.0866 8.90529ZM16.128 8.92847H15.128V9.51886L15.645 9.80406L16.128 8.92847ZM18.0658 8.88135L18.8819 8.30339L18.2923 7.47092L17.4717 8.07694L18.0658 8.88135ZM18.9771 10.1681L19.8796 10.5987L20.1323 10.069L19.7931 9.59013L18.9771 10.1681ZM18.833 13.0262L17.8748 13.3125L18.833 13.0262ZM16.7198 15.9445L16.6555 14.9466L16.5938 14.9506L16.5331 14.9621L16.7198 15.9445ZM16.128 16.1473L15.5594 15.3247L15.128 15.6229V16.1473H16.128ZM16.0866 16.181L16.7868 15.4671L16.0866 14.7803L15.3863 15.4671L16.0866 16.181ZM16.0451 16.1473H17.0451V15.6229L16.6137 15.3247L16.0451 16.1473ZM15.4533 15.9445L15.64 14.9621L15.5793 14.9506L15.5176 14.9466L15.4533 15.9445ZM13.196 10.1681L12.38 9.59013L12.0408 10.069L12.2935 10.5987L13.196 10.1681ZM14.1073 8.88135L14.7014 8.07694L13.8808 7.47092L13.2913 8.30339L14.1073 8.88135ZM16.0451 8.92847L16.5282 9.80406L17.0451 9.51886V8.92847H16.0451ZM16.0451 8.88135L16.5571 8.0224L15.0451 7.12099V8.88135H16.0451ZM16.128 8.88135C15.616 8.0224 15.616 8.02239 15.616 8.02238C15.616 8.02238 15.616 8.02237 15.616 8.02236C15.6161 8.02235 15.6161 8.02233 15.6161 8.02232C15.6161 8.0223 15.6162 8.02227 15.6162 8.02225C15.6163 8.0222 15.6164 8.02216 15.6164 8.02211C15.6166 8.02203 15.6167 8.02195 15.6168 8.02188C15.6171 8.02174 15.6173 8.02163 15.6174 8.02155C15.6176 8.0214 15.6177 8.02138 15.6175 8.02147C15.6172 8.02167 15.616 8.02236 15.6141 8.02349C15.6102 8.02577 15.6032 8.02981 15.5934 8.03533L16.5797 9.77526C16.5966 9.76568 16.6103 9.75776 16.6205 9.75183C16.6256 9.74887 16.6298 9.7464 16.6331 9.74446C16.6347 9.74349 16.6361 9.74266 16.6373 9.74196C16.6379 9.74162 16.6384 9.7413 16.6389 9.74102C16.6391 9.74089 16.6393 9.74076 16.6395 9.74063C16.6396 9.74057 16.6397 9.74052 16.6398 9.74046C16.6399 9.74043 16.6399 9.7404 16.64 9.74038C16.64 9.74036 16.64 9.74035 16.64 9.74034C16.64 9.74033 16.6401 9.74032 16.6401 9.74032C16.6401 9.74031 16.6401 9.7403 16.128 8.88135ZM17.128 8.92847V8.88135H15.128V8.92847H17.128ZM15.645 9.80406C15.7584 9.86667 15.9652 9.97557 16.1998 10.0715C16.4025 10.1544 16.7558 10.2836 17.1205 10.2836V8.28357C17.1623 8.28357 17.1665 8.29008 17.1196 8.27744C17.0788 8.26645 17.0236 8.24759 16.9567 8.22023C16.822 8.16514 16.6901 8.0965 16.6111 8.05289L15.645 9.80406ZM17.1205 10.2836C17.5884 10.2836 18.0146 10.0725 18.2185 9.96239C18.3432 9.89504 18.4492 9.82886 18.524 9.77963C18.5619 9.7547 18.593 9.73331 18.616 9.71723C18.6275 9.70916 18.637 9.70238 18.6443 9.69707C18.648 9.69442 18.6512 9.69213 18.6537 9.69024C18.655 9.68929 18.6562 9.68844 18.6572 9.6877C18.6577 9.68732 18.6582 9.68697 18.6586 9.68665C18.6589 9.68649 18.6591 9.68633 18.6593 9.68618C18.6594 9.68611 18.6595 9.686 18.6596 9.68597C18.6597 9.68586 18.6599 9.68576 18.0658 8.88135C17.4717 8.07694 17.4718 8.07684 17.472 8.07674C17.472 8.07671 17.4722 8.07661 17.4722 8.07655C17.4724 8.07642 17.4726 8.0763 17.4727 8.07619C17.473 8.07597 17.4733 8.07576 17.4735 8.07558C17.474 8.07522 17.4744 8.07495 17.4747 8.07476C17.4752 8.07439 17.4752 8.07436 17.4748 8.07466C17.474 8.07525 17.4714 8.0771 17.4672 8.08003C17.4588 8.08595 17.4443 8.09598 17.4248 8.10876C17.385 8.13495 17.3298 8.16932 17.2683 8.20252C17.2048 8.23679 17.1488 8.26215 17.106 8.27718C17.0559 8.29475 17.0655 8.28357 17.1205 8.28357V10.2836ZM17.2497 9.4593L18.161 10.746L19.7931 9.59013L18.8819 8.30339L17.2497 9.4593ZM18.9771 10.1681C18.0745 9.73746 18.0744 9.73781 18.0742 9.73816C18.0741 9.73828 18.074 9.73864 18.0739 9.73889C18.0736 9.73938 18.0734 9.7399 18.0731 9.74044C18.0726 9.74151 18.0721 9.74267 18.0715 9.7439C18.0703 9.74638 18.069 9.74919 18.0676 9.75232C18.0647 9.75859 18.0612 9.76616 18.0573 9.77501C18.0494 9.79271 18.0394 9.81554 18.0279 9.84325C18.005 9.89862 17.9756 9.97381 17.9434 10.0668C17.8793 10.2522 17.8031 10.5115 17.7452 10.8278C17.6299 11.4583 17.5838 12.3386 17.8748 13.3125L19.7911 12.7399C19.6125 12.142 19.6384 11.5932 19.7126 11.1876C19.7495 10.9859 19.7973 10.8254 19.8336 10.7205C19.8516 10.6683 19.8665 10.6307 19.8753 10.6096C19.8797 10.5991 19.8825 10.5927 19.8833 10.5908C19.8837 10.5899 19.8837 10.59 19.8831 10.5913C19.8828 10.592 19.8823 10.5929 19.8818 10.5941C19.8815 10.5948 19.8812 10.5954 19.8808 10.5962C19.8806 10.5966 19.8804 10.597 19.8802 10.5974C19.8801 10.5976 19.88 10.5979 19.8799 10.598C19.8798 10.5984 19.8796 10.5987 18.9771 10.1681ZM17.8748 13.3125C18.0723 13.9736 17.9935 14.3266 17.89 14.4905C17.8037 14.6272 17.5345 14.89 16.6555 14.9466L16.7841 16.9425C17.9934 16.8645 19.0156 16.4541 19.5812 15.5582C20.1296 14.6895 20.0632 13.6505 19.7911 12.7399L17.8748 13.3125ZM16.7198 15.9445C16.5331 14.9621 16.533 14.9621 16.5329 14.9622C16.5329 14.9622 16.5328 14.9622 16.5327 14.9622C16.5325 14.9622 16.5324 14.9623 16.5322 14.9623C16.5319 14.9624 16.5315 14.9624 16.5312 14.9625C16.5304 14.9626 16.5296 14.9628 16.5286 14.963C16.5267 14.9634 16.5243 14.9638 16.5216 14.9644C16.5162 14.9654 16.5092 14.9668 16.5007 14.9686C16.4839 14.972 16.4612 14.9768 16.434 14.9829C16.3803 14.995 16.3056 15.0128 16.2218 15.0363C16.0964 15.0714 15.8011 15.1577 15.5594 15.3247L16.6966 16.97C16.649 17.0029 16.6263 17.0078 16.6589 16.9951C16.6827 16.9859 16.7179 16.9743 16.7612 16.9622C16.8029 16.9505 16.8423 16.941 16.8714 16.9345C16.8856 16.9313 16.8964 16.929 16.9028 16.9277C16.906 16.9271 16.9079 16.9267 16.9086 16.9266C16.909 16.9265 16.909 16.9265 16.9086 16.9266C16.9084 16.9266 16.9082 16.9266 16.9078 16.9267C16.9076 16.9267 16.9074 16.9268 16.9072 16.9268C16.9071 16.9269 16.907 16.9269 16.9068 16.9269C16.9068 16.9269 16.9067 16.9269 16.9067 16.9269C16.9066 16.927 16.9065 16.927 16.7198 15.9445ZM17.128 16.2625V16.1473H15.128V16.2625H17.128ZM15.3863 16.8949C15.3164 16.8263 15.128 16.6119 15.128 16.2625H17.128C17.128 15.8557 16.909 15.5869 16.7868 15.4671L15.3863 16.8949ZM15.3863 15.4671C15.2642 15.5869 15.0451 15.8557 15.0451 16.2625H17.0451C17.0451 16.6119 16.8568 16.8263 16.7868 16.8949L15.3863 15.4671ZM17.0451 16.2625V16.1473H15.0451V16.2625H17.0451ZM15.4533 15.9445C15.2667 16.927 15.2666 16.927 15.2665 16.9269C15.2664 16.9269 15.2663 16.9269 15.2663 16.9269C15.2661 16.9269 15.266 16.9269 15.2659 16.9268C15.2657 16.9268 15.2655 16.9267 15.2653 16.9267C15.2649 16.9266 15.2647 16.9266 15.2645 16.9266C15.2642 16.9265 15.2642 16.9265 15.2645 16.9266C15.2652 16.9267 15.2672 16.9271 15.2703 16.9277C15.2767 16.929 15.2876 16.9313 15.3017 16.9345C15.3308 16.941 15.3702 16.9505 15.4119 16.9622C15.4552 16.9743 15.4904 16.9859 15.5142 16.9951C15.5468 17.0078 15.5241 17.0029 15.4765 16.97L16.6137 15.3247C16.3721 15.1577 16.0767 15.0714 15.9513 15.0363C15.8676 15.0128 15.7928 14.995 15.7391 14.9829C15.7119 14.9768 15.6892 14.972 15.6724 14.9686C15.664 14.9668 15.6569 14.9654 15.6515 14.9644C15.6488 14.9638 15.6464 14.9634 15.6445 14.963C15.6436 14.9628 15.6427 14.9626 15.642 14.9625C15.6416 14.9624 15.6412 14.9624 15.6409 14.9623C15.6407 14.9623 15.6406 14.9622 15.6404 14.9622C15.6404 14.9622 15.6403 14.9622 15.6402 14.9622C15.6401 14.9621 15.64 14.9621 15.4533 15.9445ZM12.382 12.7399C12.1099 13.6505 12.0435 14.6895 12.5919 15.5582C13.1576 16.4541 14.1797 16.8645 15.389 16.9425L15.5176 14.9466C14.6387 14.89 14.3694 14.6272 14.2831 14.4905C14.1796 14.3266 14.1008 13.9736 14.2983 13.3125L12.382 12.7399ZM13.196 10.1681C12.2935 10.5987 12.2933 10.5984 12.2932 10.598C12.2931 10.5979 12.293 10.5976 12.2929 10.5974C12.2927 10.597 12.2925 10.5966 12.2923 10.5962C12.292 10.5954 12.2916 10.5948 12.2913 10.5941C12.2908 10.5929 12.2903 10.592 12.29 10.5913C12.2894 10.59 12.2894 10.5899 12.2898 10.5908C12.2906 10.5927 12.2935 10.5991 12.2978 10.6096C12.3066 10.6307 12.3215 10.6683 12.3395 10.7205C12.3758 10.8254 12.4236 10.9859 12.4605 11.1876C12.5347 11.5932 12.5607 12.142 12.382 12.7399L14.2983 13.3125C14.5893 12.3386 14.5432 11.4583 14.4279 10.8278C14.37 10.5115 14.2938 10.2522 14.2297 10.0668C14.1975 9.97381 14.1681 9.89862 14.1452 9.84325C14.1337 9.81554 14.1238 9.79271 14.1158 9.77501C14.1119 9.76616 14.1084 9.75859 14.1055 9.75232C14.1041 9.74919 14.1028 9.74638 14.1016 9.7439C14.101 9.74267 14.1005 9.74151 14.1 9.74044C14.0997 9.7399 14.0995 9.73938 14.0993 9.73889C14.0991 9.73864 14.099 9.73828 14.0989 9.73816C14.0987 9.73781 14.0986 9.73746 13.196 10.1681ZM13.2913 8.30339L12.38 9.59013L14.0121 10.746L14.9234 9.4593L13.2913 8.30339ZM15.0526 8.28357C15.1076 8.28357 15.1172 8.29475 15.0672 8.27718C15.0243 8.26215 14.9683 8.23679 14.9048 8.20252C14.8433 8.16932 14.7881 8.13495 14.7483 8.10876C14.7289 8.09598 14.7143 8.08595 14.7059 8.08003C14.7017 8.0771 14.6991 8.07525 14.6983 8.07466C14.6979 8.07436 14.6979 8.07439 14.6984 8.07476C14.6987 8.07495 14.6991 8.07522 14.6996 8.07558C14.6998 8.07576 14.7001 8.07597 14.7004 8.07619C14.7005 8.0763 14.7007 8.07642 14.7009 8.07655C14.701 8.07661 14.7011 8.07671 14.7011 8.07674C14.7013 8.07684 14.7014 8.07694 14.1073 8.88135C13.5133 9.68576 13.5134 9.68586 13.5135 9.68597C13.5136 9.686 13.5137 9.68611 13.5138 9.68618C13.514 9.68633 13.5142 9.68649 13.5145 9.68665C13.5149 9.68697 13.5154 9.68732 13.5159 9.6877C13.5169 9.68844 13.5181 9.68929 13.5194 9.69024C13.522 9.69213 13.5251 9.69442 13.5288 9.69707C13.5361 9.70238 13.5457 9.70916 13.5571 9.71723C13.5801 9.73331 13.6112 9.7547 13.6491 9.77963C13.7239 9.82886 13.8299 9.89504 13.9546 9.96239C14.1585 10.0725 14.5848 10.2836 15.0526 10.2836V8.28357ZM15.562 8.05289C15.483 8.0965 15.3511 8.16514 15.2164 8.22023C15.1495 8.24759 15.0943 8.26645 15.0535 8.27744C15.0066 8.29008 15.0108 8.28357 15.0526 8.28357V10.2836C15.4173 10.2836 15.7706 10.1544 15.9733 10.0715C16.2079 9.97557 16.4147 9.86667 16.5282 9.80406L15.562 8.05289ZM17.0451 8.92847V8.88135H15.0451V8.92847H17.0451ZM16.0451 8.88135C15.533 9.7403 15.533 9.74031 15.5331 9.74032C15.5331 9.74032 15.5331 9.74033 15.5331 9.74034C15.5331 9.74035 15.5331 9.74036 15.5332 9.74038C15.5332 9.7404 15.5332 9.74043 15.5333 9.74046C15.5334 9.74052 15.5335 9.74057 15.5336 9.74063C15.5338 9.74076 15.534 9.74089 15.5342 9.74102C15.5347 9.7413 15.5352 9.74162 15.5358 9.74196C15.537 9.74266 15.5384 9.74349 15.5401 9.74446C15.5433 9.7464 15.5475 9.74887 15.5526 9.75183C15.5628 9.75776 15.5766 9.76568 15.5934 9.77526L16.5797 8.03533C16.5699 8.02981 16.5629 8.02577 16.559 8.02349C16.5571 8.02236 16.5559 8.02167 16.5556 8.02147C16.5554 8.02138 16.5555 8.0214 16.5557 8.02155C16.5558 8.02163 16.556 8.02174 16.5563 8.02188C16.5564 8.02195 16.5565 8.02203 16.5567 8.02211C16.5567 8.02216 16.5568 8.0222 16.5569 8.02225C16.5569 8.02227 16.557 8.0223 16.557 8.02232C16.557 8.02233 16.5571 8.02235 16.5571 8.02236C16.5571 8.02237 16.5571 8.02238 16.5571 8.02238C16.5571 8.02239 16.5571 8.0224 16.0451 8.88135Z" fill="#E8AA00" mask="url(#path-11-outside-1_1527_21018)"/>
<mask id="mask1_1527_21018" style="mask-type:alpha" maskUnits="userSpaceOnUse" x="12" y="7" width="9" height="11">
<mask id="path-13-outside-2_1527_21018" maskUnits="userSpaceOnUse" x="11.1768" y="6.88135" width="9" height="11" fill="black">
<rect fill="white" x="11.1768" y="6.88135" width="9" height="11"/>
<path fill-rule="evenodd" clip-rule="evenodd" d="M16.0866 8.90529C16.1132 8.89021 16.128 8.88135 16.128 8.88135V8.92847C16.3205 9.03469 16.8053 9.28357 17.1205 9.28357C17.5212 9.28357 18.0658 8.88135 18.0658 8.88135L18.9771 10.1681C18.9771 10.1681 18.3634 11.4544 18.833 13.0262C19.3026 14.598 18.8081 15.81 16.7198 15.9445C16.7198 15.9445 16.3083 16.0227 16.128 16.1473V16.2625C16.128 16.2338 16.1127 16.2066 16.0866 16.181C16.0605 16.2066 16.0451 16.2338 16.0451 16.2625V16.1473C15.8648 16.0227 15.4533 15.9445 15.4533 15.9445C13.365 15.81 12.8706 14.598 13.3402 13.0262C13.8098 11.4544 13.196 10.1681 13.196 10.1681L14.1073 8.88135C14.1073 8.88135 14.652 9.28357 15.0526 9.28357C15.3678 9.28357 15.8526 9.03469 16.0451 8.92847V8.88135C16.0451 8.88135 16.0599 8.89021 16.0866 8.90529Z"/>
</mask>
<path fill-rule="evenodd" clip-rule="evenodd" d="M16.0866 8.90529C16.1132 8.89021 16.128 8.88135 16.128 8.88135V8.92847C16.3205 9.03469 16.8053 9.28357 17.1205 9.28357C17.5212 9.28357 18.0658 8.88135 18.0658 8.88135L18.9771 10.1681C18.9771 10.1681 18.3634 11.4544 18.833 13.0262C19.3026 14.598 18.8081 15.81 16.7198 15.9445C16.7198 15.9445 16.3083 16.0227 16.128 16.1473V16.2625C16.128 16.2338 16.1127 16.2066 16.0866 16.181C16.0605 16.2066 16.0451 16.2338 16.0451 16.2625V16.1473C15.8648 16.0227 15.4533 15.9445 15.4533 15.9445C13.365 15.81 12.8706 14.598 13.3402 13.0262C13.8098 11.4544 13.196 10.1681 13.196 10.1681L14.1073 8.88135C14.1073 8.88135 14.652 9.28357 15.0526 9.28357C15.3678 9.28357 15.8526 9.03469 16.0451 8.92847V8.88135C16.0451 8.88135 16.0599 8.89021 16.0866 8.90529Z" fill="white"/>
<path d="M16.128 8.88135H17.128V7.12099L15.616 8.0224L16.128 8.88135ZM16.0866 8.90529L15.5934 9.77526L16.0866 10.0548L16.5797 9.77526L16.0866 8.90529ZM16.128 8.92847H15.128V9.51886L15.645 9.80406L16.128 8.92847ZM18.0658 8.88135L18.8819 8.30339L18.2923 7.47092L17.4717 8.07694L18.0658 8.88135ZM18.9771 10.1681L19.8796 10.5987L20.1323 10.069L19.7931 9.59013L18.9771 10.1681ZM18.833 13.0262L17.8748 13.3125L18.833 13.0262ZM16.7198 15.9445L16.6555 14.9466L16.5938 14.9506L16.5331 14.9621L16.7198 15.9445ZM16.128 16.1473L15.5594 15.3247L15.128 15.6229V16.1473H16.128ZM16.0866 16.181L16.7868 15.4671L16.0866 14.7803L15.3863 15.4671L16.0866 16.181ZM16.0451 16.1473H17.0451V15.6229L16.6137 15.3247L16.0451 16.1473ZM15.4533 15.9445L15.64 14.9621L15.5793 14.9506L15.5176 14.9466L15.4533 15.9445ZM13.196 10.1681L12.38 9.59013L12.0408 10.069L12.2935 10.5987L13.196 10.1681ZM14.1073 8.88135L14.7014 8.07694L13.8808 7.47092L13.2913 8.30339L14.1073 8.88135ZM16.0451 8.92847L16.5282 9.80406L17.0451 9.51886V8.92847H16.0451ZM16.0451 8.88135L16.5571 8.0224L15.0451 7.12099V8.88135H16.0451ZM16.128 8.88135C15.616 8.0224 15.616 8.02239 15.616 8.02238C15.616 8.02238 15.616 8.02237 15.616 8.02236C15.6161 8.02235 15.6161 8.02233 15.6161 8.02232C15.6161 8.0223 15.6162 8.02227 15.6162 8.02225C15.6163 8.0222 15.6164 8.02216 15.6164 8.02211C15.6166 8.02203 15.6167 8.02195 15.6168 8.02188C15.6171 8.02174 15.6173 8.02163 15.6174 8.02155C15.6176 8.0214 15.6177 8.02138 15.6175 8.02147C15.6172 8.02167 15.616 8.02236 15.6141 8.02349C15.6102 8.02577 15.6032 8.02981 15.5934 8.03533L16.5797 9.77526C16.5966 9.76568 16.6103 9.75776 16.6205 9.75183C16.6256 9.74887 16.6298 9.7464 16.6331 9.74446C16.6347 9.74349 16.6361 9.74266 16.6373 9.74196C16.6379 9.74162 16.6384 9.7413 16.6389 9.74102C16.6391 9.74089 16.6393 9.74076 16.6395 9.74063C16.6396 9.74057 16.6397 9.74052 16.6398 9.74046C16.6399 9.74043 16.6399 9.7404 16.64 9.74038C16.64 9.74036 16.64 9.74035 16.64 9.74034C16.64 9.74033 16.6401 9.74032 16.6401 9.74032C16.6401 9.74031 16.6401 9.7403 16.128 8.88135ZM17.128 8.92847V8.88135H15.128V8.92847H17.128ZM15.645 9.80406C15.7584 9.86667 15.9652 9.97557 16.1998 10.0715C16.4025 10.1544 16.7558 10.2836 17.1205 10.2836V8.28357C17.1623 8.28357 17.1665 8.29008 17.1196 8.27744C17.0788 8.26645 17.0236 8.24759 16.9567 8.22023C16.822 8.16514 16.6901 8.0965 16.6111 8.05289L15.645 9.80406ZM17.1205 10.2836C17.5884 10.2836 18.0146 10.0725 18.2185 9.96239C18.3432 9.89504 18.4492 9.82886 18.524 9.77963C18.5619 9.7547 18.593 9.73331 18.616 9.71723C18.6275 9.70916 18.637 9.70238 18.6443 9.69707C18.648 9.69442 18.6512 9.69213 18.6537 9.69024C18.655 9.68929 18.6562 9.68844 18.6572 9.6877C18.6577 9.68732 18.6582 9.68697 18.6586 9.68665C18.6589 9.68649 18.6591 9.68633 18.6593 9.68618C18.6594 9.68611 18.6595 9.686 18.6596 9.68597C18.6597 9.68586 18.6599 9.68576 18.0658 8.88135C17.4717 8.07694 17.4718 8.07684 17.472 8.07674C17.472 8.07671 17.4722 8.07661 17.4722 8.07655C17.4724 8.07642 17.4726 8.0763 17.4727 8.07619C17.473 8.07597 17.4733 8.07576 17.4735 8.07558C17.474 8.07522 17.4744 8.07495 17.4747 8.07476C17.4752 8.07439 17.4752 8.07436 17.4748 8.07466C17.474 8.07525 17.4714 8.0771 17.4672 8.08003C17.4588 8.08595 17.4443 8.09598 17.4248 8.10876C17.385 8.13495 17.3298 8.16932 17.2683 8.20252C17.2048 8.23679 17.1488 8.26215 17.106 8.27718C17.0559 8.29475 17.0655 8.28357 17.1205 8.28357V10.2836ZM17.2497 9.4593L18.161 10.746L19.7931 9.59013L18.8819 8.30339L17.2497 9.4593ZM18.9771 10.1681C18.0745 9.73746 18.0744 9.73781 18.0742 9.73816C18.0741 9.73828 18.074 9.73864 18.0739 9.73889C18.0736 9.73938 18.0734 9.7399 18.0731 9.74044C18.0726 9.74151 18.0721 9.74267 18.0715 9.7439C18.0703 9.74638 18.069 9.74919 18.0676 9.75232C18.0647 9.75859 18.0612 9.76616 18.0573 9.77501C18.0494 9.79271 18.0394 9.81554 18.0279 9.84325C18.005 9.89862 17.9756 9.97381 17.9434 10.0668C17.8793 10.2522 17.8031 10.5115 17.7452 10.8278C17.6299 11.4583 17.5838 12.3386 17.8748 13.3125L19.7911 12.7399C19.6125 12.142 19.6384 11.5932 19.7126 11.1876C19.7495 10.9859 19.7973 10.8254 19.8336 10.7205C19.8516 10.6683 19.8665 10.6307 19.8753 10.6096C19.8797 10.5991 19.8825 10.5927 19.8833 10.5908C19.8837 10.5899 19.8837 10.59 19.8831 10.5913C19.8828 10.592 19.8823 10.5929 19.8818 10.5941C19.8815 10.5948 19.8812 10.5954 19.8808 10.5962C19.8806 10.5966 19.8804 10.597 19.8802 10.5974C19.8801 10.5976 19.88 10.5979 19.8799 10.598C19.8798 10.5984 19.8796 10.5987 18.9771 10.1681ZM17.8748 13.3125C18.0723 13.9736 17.9935 14.3266 17.89 14.4905C17.8037 14.6272 17.5345 14.89 16.6555 14.9466L16.7841 16.9425C17.9934 16.8645 19.0156 16.4541 19.5812 15.5582C20.1296 14.6895 20.0632 13.6505 19.7911 12.7399L17.8748 13.3125ZM16.7198 15.9445C16.5331 14.9621 16.533 14.9621 16.5329 14.9622C16.5329 14.9622 16.5328 14.9622 16.5327 14.9622C16.5325 14.9622 16.5324 14.9623 16.5322 14.9623C16.5319 14.9624 16.5315 14.9624 16.5312 14.9625C16.5304 14.9626 16.5296 14.9628 16.5286 14.963C16.5267 14.9634 16.5243 14.9638 16.5216 14.9644C16.5162 14.9654 16.5092 14.9668 16.5007 14.9686C16.4839 14.972 16.4612 14.9768 16.434 14.9829C16.3803 14.995 16.3056 15.0128 16.2218 15.0363C16.0964 15.0714 15.8011 15.1577 15.5594 15.3247L16.6966 16.97C16.649 17.0029 16.6263 17.0078 16.6589 16.9951C16.6827 16.9859 16.7179 16.9743 16.7612 16.9622C16.8029 16.9505 16.8423 16.941 16.8714 16.9345C16.8856 16.9313 16.8964 16.929 16.9028 16.9277C16.906 16.9271 16.9079 16.9267 16.9086 16.9266C16.909 16.9265 16.909 16.9265 16.9086 16.9266C16.9084 16.9266 16.9082 16.9266 16.9078 16.9267C16.9076 16.9267 16.9074 16.9268 16.9072 16.9268C16.9071 16.9269 16.907 16.9269 16.9068 16.9269C16.9068 16.9269 16.9067 16.9269 16.9067 16.9269C16.9066 16.927 16.9065 16.927 16.7198 15.9445ZM17.128 16.2625V16.1473H15.128V16.2625H17.128ZM15.3863 16.8949C15.3164 16.8263 15.128 16.6119 15.128 16.2625H17.128C17.128 15.8557 16.909 15.5869 16.7868 15.4671L15.3863 16.8949ZM15.3863 15.4671C15.2642 15.5869 15.0451 15.8557 15.0451 16.2625H17.0451C17.0451 16.6119 16.8568 16.8263 16.7868 16.8949L15.3863 15.4671ZM17.0451 16.2625V16.1473H15.0451V16.2625H17.0451ZM15.4533 15.9445C15.2667 16.927 15.2666 16.927 15.2665 16.9269C15.2664 16.9269 15.2663 16.9269 15.2663 16.9269C15.2661 16.9269 15.266 16.9269 15.2659 16.9268C15.2657 16.9268 15.2655 16.9267 15.2653 16.9267C15.2649 16.9266 15.2647 16.9266 15.2645 16.9266C15.2642 16.9265 15.2642 16.9265 15.2645 16.9266C15.2652 16.9267 15.2672 16.9271 15.2703 16.9277C15.2767 16.929 15.2876 16.9313 15.3017 16.9345C15.3308 16.941 15.3702 16.9505 15.4119 16.9622C15.4552 16.9743 15.4904 16.9859 15.5142 16.9951C15.5468 17.0078 15.5241 17.0029 15.4765 16.97L16.6137 15.3247C16.3721 15.1577 16.0767 15.0714 15.9513 15.0363C15.8676 15.0128 15.7928 14.995 15.7391 14.9829C15.7119 14.9768 15.6892 14.972 15.6724 14.9686C15.664 14.9668 15.6569 14.9654 15.6515 14.9644C15.6488 14.9638 15.6464 14.9634 15.6445 14.963C15.6436 14.9628 15.6427 14.9626 15.642 14.9625C15.6416 14.9624 15.6412 14.9624 15.6409 14.9623C15.6407 14.9623 15.6406 14.9622 15.6404 14.9622C15.6404 14.9622 15.6403 14.9622 15.6402 14.9622C15.6401 14.9621 15.64 14.9621 15.4533 15.9445ZM12.382 12.7399C12.1099 13.6505 12.0435 14.6895 12.5919 15.5582C13.1576 16.4541 14.1797 16.8645 15.389 16.9425L15.5176 14.9466C14.6387 14.89 14.3694 14.6272 14.2831 14.4905C14.1796 14.3266 14.1008 13.9736 14.2983 13.3125L12.382 12.7399ZM13.196 10.1681C12.2935 10.5987 12.2933 10.5984 12.2932 10.598C12.2931 10.5979 12.293 10.5976 12.2929 10.5974C12.2927 10.597 12.2925 10.5966 12.2923 10.5962C12.292 10.5954 12.2916 10.5948 12.2913 10.5941C12.2908 10.5929 12.2903 10.592 12.29 10.5913C12.2894 10.59 12.2894 10.5899 12.2898 10.5908C12.2906 10.5927 12.2935 10.5991 12.2978 10.6096C12.3066 10.6307 12.3215 10.6683 12.3395 10.7205C12.3758 10.8254 12.4236 10.9859 12.4605 11.1876C12.5347 11.5932 12.5607 12.142 12.382 12.7399L14.2983 13.3125C14.5893 12.3386 14.5432 11.4583 14.4279 10.8278C14.37 10.5115 14.2938 10.2522 14.2297 10.0668C14.1975 9.97381 14.1681 9.89862 14.1452 9.84325C14.1337 9.81554 14.1238 9.79271 14.1158 9.77501C14.1119 9.76616 14.1084 9.75859 14.1055 9.75232C14.1041 9.74919 14.1028 9.74638 14.1016 9.7439C14.101 9.74267 14.1005 9.74151 14.1 9.74044C14.0997 9.7399 14.0995 9.73938 14.0993 9.73889C14.0991 9.73864 14.099 9.73828 14.0989 9.73816C14.0987 9.73781 14.0986 9.73746 13.196 10.1681ZM13.2913 8.30339L12.38 9.59013L14.0121 10.746L14.9234 9.4593L13.2913 8.30339ZM15.0526 8.28357C15.1076 8.28357 15.1172 8.29475 15.0672 8.27718C15.0243 8.26215 14.9683 8.23679 14.9048 8.20252C14.8433 8.16932 14.7881 8.13495 14.7483 8.10876C14.7289 8.09598 14.7143 8.08595 14.7059 8.08003C14.7017 8.0771 14.6991 8.07525 14.6983 8.07466C14.6979 8.07436 14.6979 8.07439 14.6984 8.07476C14.6987 8.07495 14.6991 8.07522 14.6996 8.07558C14.6998 8.07576 14.7001 8.07597 14.7004 8.07619C14.7005 8.0763 14.7007 8.07642 14.7009 8.07655C14.701 8.07661 14.7011 8.07671 14.7011 8.07674C14.7013 8.07684 14.7014 8.07694 14.1073 8.88135C13.5133 9.68576 13.5134 9.68586 13.5135 9.68597C13.5136 9.686 13.5137 9.68611 13.5138 9.68618C13.514 9.68633 13.5142 9.68649 13.5145 9.68665C13.5149 9.68697 13.5154 9.68732 13.5159 9.6877C13.5169 9.68844 13.5181 9.68929 13.5194 9.69024C13.522 9.69213 13.5251 9.69442 13.5288 9.69707C13.5361 9.70238 13.5457 9.70916 13.5571 9.71723C13.5801 9.73331 13.6112 9.7547 13.6491 9.77963C13.7239 9.82886 13.8299 9.89504 13.9546 9.96239C14.1585 10.0725 14.5848 10.2836 15.0526 10.2836V8.28357ZM15.562 8.05289C15.483 8.0965 15.3511 8.16514 15.2164 8.22023C15.1495 8.24759 15.0943 8.26645 15.0535 8.27744C15.0066 8.29008 15.0108 8.28357 15.0526 8.28357V10.2836C15.4173 10.2836 15.7706 10.1544 15.9733 10.0715C16.2079 9.97557 16.4147 9.86667 16.5282 9.80406L15.562 8.05289ZM17.0451 8.92847V8.88135H15.0451V8.92847H17.0451ZM16.0451 8.88135C15.533 9.7403 15.533 9.74031 15.5331 9.74032C15.5331 9.74032 15.5331 9.74033 15.5331 9.74034C15.5331 9.74035 15.5331 9.74036 15.5332 9.74038C15.5332 9.7404 15.5332 9.74043 15.5333 9.74046C15.5334 9.74052 15.5335 9.74057 15.5336 9.74063C15.5338 9.74076 15.534 9.74089 15.5342 9.74102C15.5347 9.7413 15.5352 9.74162 15.5358 9.74196C15.537 9.74266 15.5384 9.74349 15.5401 9.74446C15.5433 9.7464 15.5475 9.74887 15.5526 9.75183C15.5628 9.75776 15.5766 9.76568 15.5934 9.77526L16.5797 8.03533C16.5699 8.02981 16.5629 8.02577 16.559 8.02349C16.5571 8.02236 16.5559 8.02167 16.5556 8.02147C16.5554 8.02138 16.5555 8.0214 16.5557 8.02155C16.5558 8.02163 16.556 8.02174 16.5563 8.02188C16.5564 8.02195 16.5565 8.02203 16.5567 8.02211C16.5567 8.02216 16.5568 8.0222 16.5569 8.02225C16.5569 8.02227 16.557 8.0223 16.557 8.02232C16.557 8.02233 16.5571 8.02235 16.5571 8.02236C16.5571 8.02237 16.5571 8.02238 16.5571 8.02238C16.5571 8.02239 16.5571 8.0224 16.0451 8.88135Z" fill="white" mask="url(#path-13-outside-2_1527_21018)"/>
</mask>
<g mask="url(#mask1_1527_21018)">
<rect x="13.3042" y="8.72705" width="2.78261" height="3.81818" fill="#67BAFF"/>
<rect x="16.0869" y="8.72705" width="2.78261" height="3.81818" fill="white"/>
<rect x="12.9561" y="12.9092" width="6.95652" height="4.36364" fill="#C51918"/>
<path d="M17.4347 12.2749H17.0869V9.66016H17.4347V12.2749Z" fill="#C9A951"/>
<path d="M17.2934 11.0852L17.1238 11.3889L16.5234 11.0537L16.693 10.75L17.2934 11.0852Z" fill="#C9A951"/>
<path d="M17.2934 10.3582L17.1238 10.6619L16.5234 10.3266L16.693 10.0229L17.2934 10.3582Z" fill="#C9A951"/>
<path d="M17.2193 11.0852L17.3889 11.3889L17.9893 11.0537L17.8197 10.75L17.2193 11.0852Z" fill="#C9A951"/>
<path d="M17.2193 10.3582L17.3889 10.6619L17.9893 10.3266L17.8197 10.0229L17.2193 10.3582Z" fill="#C9A951"/>
<path fill-rule="evenodd" clip-rule="evenodd" d="M17.7287 13.7048C17.7287 13.7048 17.9707 13.4282 17.9707 13.5665C17.9707 13.7048 17.9707 13.9374 17.8497 13.9374C17.7287 13.9374 17.1651 13.8268 16.9504 13.5665C16.7357 13.3062 16.2815 12.8531 15.6968 12.9598C15.1121 13.0665 14.4186 13.8245 14.2477 13.8245C14.0768 13.8245 13.7021 14.4087 13.9749 14.8649C14.2477 15.3212 14.7117 15.1796 14.7117 15.312C14.7117 15.4444 14.8277 15.4596 15.2623 15.4596C15.6968 15.4596 15.8557 15.6129 16.2318 15.6129C16.608 15.6129 16.1077 15.6072 16.7135 15.4596C17.3194 15.312 17.7783 14.8649 17.4252 14.8649C17.0722 14.8649 16.9581 14.8649 16.7135 14.8649C16.4689 14.8649 15.9245 15.0412 15.9245 14.8649C15.9245 14.6887 16.0454 14.3113 16.3795 14.5C16.7135 14.6887 17.6417 14.8326 17.9707 14.5C18.2996 14.1674 18.4146 13.9668 18.3571 13.5665C18.2996 13.1662 17.8497 13.2814 17.8497 13.2814L17.7287 13.7048Z" fill="#FBCD17"/>
<path fill-rule="evenodd" clip-rule="evenodd" d="M15.3761 9.56982C15.1664 9.75321 15.3017 10.4234 14.9581 10.4234C14.6146 10.4234 14.1311 9.92155 14.0094 10.2527C13.8876 10.5838 14.0094 10.4726 14.0094 10.7546C14.0094 11.0366 13.7178 11.8203 13.8636 11.9528C14.0094 12.0853 14.1588 12.4344 14.1329 12.271C14.107 12.1076 13.9968 11.8676 14.0427 11.6069C13.9983 11.3376 14.2884 11.0785 14.2884 11.0785C14.2884 11.0785 14.2569 11.3581 14.2341 11.4624C14.2341 11.4624 14.1384 11.6728 14.1773 11.8126C14.1773 11.8126 14.2755 12.2065 14.316 12.2337C14.316 12.2337 14.3423 11.301 14.3722 11.1473C14.4021 10.9936 14.6153 11.3207 14.6863 11.2836C14.6863 11.2836 14.7106 11.9214 14.6737 11.9974C14.6737 11.9974 14.599 12.1482 14.6268 12.1964C14.6268 12.1964 14.6961 12.371 14.7553 12.3202C14.7553 12.3202 14.7574 12.3165 14.7874 12.1466C14.7874 12.1466 14.7525 12.044 14.8071 11.8103C14.8071 11.8103 14.8645 11.2958 14.8883 11.4074C14.8883 11.4074 14.8776 11.6503 14.905 11.7755C14.905 11.7755 14.9488 12.0864 14.9576 12.1205C14.9576 12.1205 15.1675 12.4195 15.1731 12.2932C15.1731 12.2932 14.9719 12.0533 15.015 11.8707C15.015 11.8707 14.8998 11.3535 15.0606 11.2382C15.0606 11.2382 15.4872 11.0408 15.5128 10.7031C15.5128 10.7031 15.5746 10.3181 15.5857 10.1416C15.5857 10.1416 15.4922 10.0898 15.6856 9.99865C15.6856 9.99865 15.997 9.87912 15.803 9.71291" fill="#D18219"/>
</g>
</g>
</svg>
