<svg width="150" height="19" viewBox="0 0 150 19" fill="none" xmlns="http://www.w3.org/2000/svg">
<path d="M8.43686 7.26063C9.16162 7.26063 9.73414 7.47077 10.1544 7.89105C10.579 8.30704 10.7913 8.87741 10.7913 9.60218V13.2089C10.7913 13.5049 10.5513 13.7449 10.2552 13.7449H9.31386C9.0178 13.7449 8.7778 13.5049 8.7778 13.2089V10.3162C8.7778 9.94312 8.68988 9.65579 8.51405 9.45422C8.33822 9.25266 8.09163 9.15188 7.77427 9.15188C7.47836 9.15188 7.23392 9.25481 7.04093 9.46066C6.84795 9.66222 6.75145 9.95813 6.75145 10.3484V13.2089C6.75145 13.5049 6.51145 13.7449 6.21538 13.7449H5.27405C4.97798 13.7449 4.73798 13.5049 4.73798 13.2089V10.3162C4.73798 9.94312 4.65006 9.65579 4.47423 9.45422C4.2984 9.25266 4.05395 9.15188 3.74089 9.15188C3.44498 9.15188 3.20053 9.25481 3.00754 9.46066C2.81456 9.66222 2.71807 9.95813 2.71807 10.3484V13.2089C2.71807 13.5049 2.47806 13.7449 2.182 13.7449H1.24066C0.944596 13.7449 0.70459 13.5049 0.70459 13.2089V7.97038C0.70459 7.67432 0.944596 7.43431 1.24066 7.43431H2.46282C2.5576 7.43431 2.63444 7.51115 2.63444 7.60594C2.63444 7.78 2.89651 7.86439 3.02759 7.74987C3.4009 7.42371 3.89598 7.26063 4.51283 7.26063C4.92882 7.26063 5.30407 7.35283 5.63857 7.53724C5.69978 7.57056 5.75861 7.60632 5.81506 7.64454C6.15567 7.87512 6.7139 7.87247 7.05327 7.64008C7.42269 7.38711 7.88388 7.26063 8.43686 7.26063Z" fill="white"/>
<path d="M13.5065 7.43431C13.8025 7.43431 14.0425 7.67432 14.0425 7.97038V13.2089C14.0425 13.5049 13.8025 13.7449 13.5065 13.7449H12.5651C12.2691 13.7449 12.0291 13.5049 12.0291 13.2089V7.97038C12.0291 7.67432 12.2691 7.43431 12.5651 7.43431H13.5065ZM12.1706 4.6296C12.4022 4.39802 12.6873 4.28223 13.0261 4.28223C13.3649 4.28223 13.6501 4.40016 13.8817 4.63603C14.1133 4.86761 14.2291 5.1528 14.2291 5.4916C14.2291 5.83039 14.1133 6.11558 13.8817 6.34717C13.6501 6.57446 13.3649 6.68811 13.0261 6.68811C12.6873 6.68811 12.4022 6.57446 12.1706 6.34717C11.939 6.11558 11.8232 5.83039 11.8232 5.4916C11.8232 5.14851 11.939 4.86118 12.1706 4.6296Z" fill="white"/>
<path d="M27.4387 5.69425C27.7347 5.69425 27.9747 5.93425 27.9747 6.23032V8.07225C27.9747 8.36831 27.7347 8.60832 27.4387 8.60832H21.9879C21.6919 8.60832 21.4519 8.84833 21.4519 9.14439V13.2346C21.4519 13.5307 21.2118 13.7707 20.9158 13.7707H18.7651C18.469 13.7707 18.229 13.5307 18.229 13.2346V0.797788C18.229 0.501725 18.469 0.261719 18.7651 0.261719H27.9018C28.1979 0.261719 28.4379 0.501725 28.4379 0.797788V2.63007C28.4379 2.92614 28.1979 3.16614 27.9018 3.16614H21.9879C21.6919 3.16614 21.4519 3.40615 21.4519 3.70221V5.15818C21.4519 5.45424 21.6919 5.69425 21.9879 5.69425H27.4387Z" fill="white"/>
<path d="M38.376 4.30475C38.672 4.30475 38.912 4.54476 38.912 4.84082V9.71798C38.912 10.4385 38.793 11.0785 38.555 11.6382C38.317 12.1914 37.9889 12.6417 37.5708 12.9891C37.1527 13.33 36.6702 13.5873 36.1234 13.761C35.583 13.9347 34.9912 14.0215 34.3479 14.0215C33.7047 14.0215 33.1096 13.9347 32.5628 13.761C32.016 13.5873 31.5336 13.33 31.1154 12.9891C30.6973 12.6417 30.3692 12.1882 30.1312 11.6285C29.8932 11.0689 29.7742 10.4288 29.7742 9.70833V4.84082C29.7742 4.54476 30.0142 4.30475 30.3103 4.30475H32.2583C32.5544 4.30475 32.7944 4.54476 32.7944 4.84082V9.4478C32.7944 10.0268 32.9327 10.4642 33.2093 10.7601C33.4924 11.056 33.8719 11.204 34.3479 11.204C34.8175 11.204 35.1939 11.056 35.4769 10.7601C35.7599 10.4642 35.9015 10.0268 35.9015 9.4478V4.84082C35.9015 4.54476 36.1415 4.30475 36.4375 4.30475H38.376Z" fill="white"/>
<path d="M47.5664 4.30475C47.8625 4.30475 48.1025 4.54476 48.1025 4.84082V6.44153C48.1025 6.73759 47.8625 6.9776 47.5664 6.9776H45.4061C45.11 6.9776 44.87 7.2176 44.87 7.51367V9.74693C44.87 10.7183 45.3171 11.204 46.2113 11.204C46.521 11.204 46.8905 11.1026 47.3199 10.9C47.6102 10.7629 47.9659 10.8735 48.0958 11.1671L48.7154 12.5669C48.819 12.801 48.7439 13.0779 48.5253 13.2113C48.1472 13.442 47.7619 13.6253 47.3692 13.761C46.8545 13.9347 46.2434 14.0215 45.5358 14.0215C44.3007 14.0215 43.3776 13.6806 42.7665 12.9987C42.1554 12.3104 41.8498 11.3551 41.8498 10.1329V7.51367C41.8498 7.2176 41.6098 6.9776 41.3137 6.9776H40.6201C40.324 6.9776 40.084 6.73759 40.084 6.44153V4.84082C40.084 4.54476 40.324 4.30475 40.6201 4.30475H41.3137C41.6098 4.30475 41.8498 4.06475 41.8498 3.76869V2.08114C41.8498 1.78507 42.0898 1.54507 42.3859 1.54507H44.3339C44.63 1.54507 44.87 1.78508 44.87 2.08114V3.76869C44.87 4.06475 45.11 4.30475 45.4061 4.30475H47.5664Z" fill="white"/>
<path d="M58.311 4.30475C58.6071 4.30475 58.8471 4.54476 58.8471 4.84082V9.71798C58.8471 10.4385 58.7281 11.0785 58.4901 11.6382C58.2521 12.1914 57.924 12.6417 57.5059 12.9891C57.0877 13.33 56.6053 13.5873 56.0585 13.761C55.5181 13.9347 54.9263 14.0215 54.283 14.0215C53.6397 14.0215 53.0447 13.9347 52.4979 13.761C51.9511 13.5873 51.4687 13.33 51.0505 12.9891C50.6324 12.6417 50.3043 12.1882 50.0663 11.6285C49.8283 11.0689 49.7093 10.4288 49.7093 9.70833V4.84082C49.7093 4.54476 49.9493 4.30475 50.2453 4.30475H52.1934C52.4895 4.30475 52.7295 4.54476 52.7295 4.84082V9.4478C52.7295 10.0268 52.8678 10.4642 53.1444 10.7601C53.4275 11.056 53.807 11.204 54.283 11.204C54.7526 11.204 55.1289 11.056 55.412 10.7601C55.695 10.4642 55.8366 10.0268 55.8366 9.4478V4.84082C55.8366 4.54476 56.0766 4.30475 56.3726 4.30475H58.311Z" fill="white"/>
<path d="M66.2428 4.04422C66.4618 4.04422 66.6722 4.06028 66.874 4.09239C67.1271 4.13267 67.2871 4.3731 67.2634 4.62835L67.0869 6.52699C67.055 6.87075 66.7106 7.0932 66.3713 7.02939C66.0851 6.97556 65.7978 6.94865 65.5095 6.94865C64.9563 6.94865 64.5285 7.09017 64.2261 7.37322C63.9302 7.65626 63.7823 8.08404 63.7823 8.65657V13.2346C63.7823 13.5307 63.5423 13.7707 63.2462 13.7707H61.2981C61.0021 13.7707 60.7621 13.5307 60.7621 13.2346V4.84082C60.7621 4.54476 61.0021 4.30475 61.2981 4.30475H63.4203C63.5509 4.30475 63.6568 4.41064 63.6568 4.54126C63.6568 4.78113 64.0162 4.8962 64.1953 4.73657C64.7129 4.27501 65.3955 4.04422 66.2428 4.04422Z" fill="white"/>
<path d="M72.9301 4.04422C74.4096 4.04422 75.6351 4.51704 76.6064 5.46266C77.5842 6.40829 78.0731 7.59836 78.0731 9.03289C78.0731 10.4674 77.5842 11.6575 76.6064 12.6031C75.6351 13.5487 74.4096 14.0215 72.9301 14.0215C71.457 14.0215 70.2315 13.5487 69.2537 12.6031C68.2824 11.6575 67.7967 10.4674 67.7967 9.03289C67.7967 7.59836 68.2824 6.40829 69.2537 5.46266C70.2315 4.51704 71.457 4.04422 72.9301 4.04422ZM72.9301 6.86181C72.3383 6.86181 71.8494 7.06444 71.4634 7.46971C71.0774 7.87498 70.8844 8.39604 70.8844 9.03289C70.8844 9.66974 71.0774 10.1908 71.4634 10.5961C71.8494 11.0013 72.3383 11.204 72.9301 11.204C73.5283 11.204 74.0204 11.0013 74.4064 10.5961C74.7924 10.1908 74.9854 9.66974 74.9854 9.03289C74.9854 8.39604 74.7924 7.87498 74.4064 7.46971C74.0204 7.06444 73.5283 6.86181 72.9301 6.86181Z" fill="white"/>
<path d="M91.626 9.43697C91.6153 9.72511 91.3785 9.95803 91.0901 9.95803H84.0141C83.7048 9.95803 83.4562 10.22 83.5107 10.5244C83.65 11.3007 83.9749 11.9546 84.4856 12.4861C85.116 13.1423 85.9329 13.4704 86.9365 13.4704C87.6698 13.4704 88.3131 13.2838 88.8663 12.9107C89.3114 12.6002 89.6483 12.2146 89.8768 11.7542C89.9778 11.5508 90.176 11.4054 90.4031 11.4054H90.73C91.0896 11.4054 91.3475 11.754 91.1952 12.0798C90.8788 12.7566 90.4177 13.3294 89.8119 13.7984C89.0143 14.4031 88.0493 14.7055 86.9172 14.7055C85.4247 14.7055 84.2411 14.2101 83.3662 13.2195C82.5042 12.216 82.0732 10.9937 82.0732 9.55276C82.0732 8.13753 82.5171 6.92816 83.4048 5.92464C84.3054 4.92112 85.4698 4.41936 86.8979 4.41936C88.326 4.41936 89.471 4.90182 90.333 5.86674C91.195 6.8188 91.626 8.00888 91.626 9.43697ZM86.8979 5.65446C85.9715 5.65446 85.1996 5.9568 84.582 6.56149C84.1025 7.0211 83.7742 7.58157 83.5972 8.24292C83.5138 8.55441 83.7668 8.83871 84.0893 8.83871H89.6674C89.9831 8.83871 90.2343 8.56571 90.1653 8.25759C90.0089 7.55877 89.6917 6.98054 89.2137 6.52289C88.6219 5.94394 87.8499 5.65446 86.8979 5.65446Z" fill="white"/>
<path d="M102.14 8.74222V13.9378C102.14 14.2339 101.9 14.4739 101.604 14.4739H101.306C101.01 14.4739 100.77 14.2339 100.77 13.9378V8.47204C100.77 7.58431 100.564 6.88956 100.153 6.3878C99.7538 5.87318 99.1362 5.61586 98.3 5.61586C97.4766 5.61586 96.8011 5.88604 96.2736 6.4264C95.7461 6.96676 95.4824 7.7001 95.4824 8.62643V13.9378C95.4824 14.2339 95.2424 14.4739 94.9463 14.4739H94.6483C94.3522 14.4739 94.1122 14.2339 94.1122 13.9378V5.18701C94.1122 4.89095 94.3522 4.65094 94.6483 4.65094H95.1191C95.2877 4.65094 95.4245 4.78769 95.4245 4.95639C95.4245 5.27297 95.9231 5.42573 96.1608 5.21663C96.765 4.68511 97.5553 4.41936 98.5316 4.41936C99.68 4.41936 100.562 4.76248 101.179 5.44872C101.469 5.77139 102.061 5.8073 102.378 5.51124C102.586 5.31718 102.822 5.13977 103.086 4.97901C103.678 4.60591 104.379 4.41936 105.19 4.41936C106.335 4.41936 107.216 4.77959 107.833 5.50007C108.464 6.20768 108.779 7.10828 108.779 8.20186V13.9378C108.779 14.2339 108.539 14.4739 108.243 14.4739H107.945C107.649 14.4739 107.409 14.2339 107.409 13.9378V8.47204C107.409 7.59718 107.203 6.90243 106.791 6.3878C106.392 5.87318 105.781 5.61586 104.958 5.61586C104.147 5.61586 103.472 5.88604 102.932 6.4264C102.404 6.96676 102.14 7.7387 102.14 8.74222Z" fill="white"/>
<path d="M114.724 14.1855C114.24 13.9139 113.29 14.2371 113.29 14.7919V17.9519C113.29 18.248 113.05 18.488 112.754 18.488H112.456C112.16 18.488 111.92 18.248 111.92 17.9519V5.18701C111.92 4.89094 112.16 4.65094 112.456 4.65094H112.854C113.063 4.65094 113.232 4.82026 113.232 5.02913C113.232 5.41776 113.835 5.60686 114.13 5.35405C114.858 4.73092 115.8 4.41936 116.957 4.41936C118.41 4.41936 119.549 4.92112 120.373 5.92464C121.196 6.9153 121.608 8.1311 121.608 9.57206C121.608 11.0001 121.196 12.216 120.373 13.2195C119.549 14.2101 118.41 14.7055 116.957 14.7055C116.086 14.7055 115.341 14.5321 114.724 14.1855ZM113.251 9.57206C113.251 10.6785 113.56 11.6048 114.178 12.351C114.795 13.0972 115.638 13.4704 116.706 13.4704C117.774 13.4704 118.623 13.0972 119.253 12.351C119.896 11.6048 120.218 10.6785 120.218 9.57206C120.218 8.45274 119.896 7.51998 119.253 6.77377C118.623 6.02757 117.774 5.65446 116.706 5.65446C115.638 5.65446 114.795 6.02757 114.178 6.77377C113.56 7.50712 113.251 8.43988 113.251 9.57206Z" fill="white"/>
<path d="M125.463 13.9378C125.463 14.2339 125.222 14.4739 124.926 14.4739H124.628C124.332 14.4739 124.092 14.2339 124.092 13.9378V0.536069C124.092 0.240006 124.332 0 124.628 0H124.926C125.222 0 125.463 0.240006 125.463 0.536069V13.9378Z" fill="white"/>
<path d="M137.527 9.43697C137.516 9.72511 137.279 9.95803 136.991 9.95803H129.915C129.606 9.95803 129.357 10.22 129.412 10.5244C129.551 11.3007 129.876 11.9546 130.386 12.4861C131.017 13.1423 131.834 13.4704 132.837 13.4704C133.571 13.4704 134.214 13.2838 134.767 12.9107C135.212 12.6002 135.549 12.2146 135.778 11.7542C135.879 11.5508 136.077 11.4054 136.304 11.4054H136.631C136.991 11.4054 137.248 11.754 137.096 12.0798C136.78 12.7566 136.319 13.3294 135.713 13.7984C134.915 14.4031 133.95 14.7055 132.818 14.7055C131.326 14.7055 130.142 14.2101 129.267 13.2195C128.405 12.216 127.974 10.9937 127.974 9.55276C127.974 8.13753 128.418 6.92816 129.306 5.92464C130.206 4.92112 131.371 4.41936 132.799 4.41936C134.227 4.41936 135.372 4.90182 136.234 5.86674C137.096 6.8188 137.527 8.00888 137.527 9.43697ZM132.799 5.65446C131.872 5.65446 131.101 5.9568 130.483 6.56149C130.003 7.0211 129.675 7.58157 129.498 8.24292C129.415 8.55441 129.668 8.83871 129.99 8.83871H135.568C135.884 8.83871 136.135 8.56571 136.066 8.25759C135.91 7.55877 135.593 6.98054 135.115 6.52289C134.523 5.94394 133.751 5.65446 132.799 5.65446Z" fill="white"/>
<path d="M144.278 14.7055C142.786 14.7055 141.576 14.2037 140.65 13.2002C139.737 12.1838 139.28 10.9744 139.28 9.57206C139.28 8.15683 139.737 6.94746 140.65 5.94394C141.576 4.92755 142.786 4.41936 144.278 4.41936C145.783 4.41936 146.993 4.92755 147.906 5.94394C148.833 6.94746 149.296 8.15683 149.296 9.57206C149.296 10.9744 148.833 12.1838 147.906 13.2002C146.993 14.2037 145.783 14.7055 144.278 14.7055ZM140.669 9.57206C140.669 10.6914 141.004 11.6241 141.673 12.3703C142.342 13.1037 143.21 13.4704 144.278 13.4704C145.359 13.4704 146.234 13.1037 146.903 12.3703C147.572 11.6241 147.906 10.6914 147.906 9.57206C147.906 8.43988 147.572 7.50712 146.903 6.77377C146.234 6.02757 145.359 5.65446 144.278 5.65446C143.197 5.65446 142.323 6.02757 141.654 6.77377C140.997 7.50712 140.669 8.43988 140.669 9.57206Z" fill="white"/>
</svg>
