<svg width="166" height="35" viewBox="0 0 166 35" fill="none" xmlns="http://www.w3.org/2000/svg">
<path d="M8.43686 15.2606C9.16162 15.2606 9.73414 15.4708 10.1544 15.891C10.579 16.307 10.7913 16.8774 10.7913 17.6022V21.2089C10.7913 21.5049 10.5513 21.7449 10.2552 21.7449H9.31386C9.0178 21.7449 8.7778 21.5049 8.7778 21.2089V18.3162C8.7778 17.9431 8.68988 17.6558 8.51405 17.4542C8.33822 17.2527 8.09163 17.1519 7.77427 17.1519C7.47836 17.1519 7.23392 17.2548 7.04093 17.4607C6.84795 17.6622 6.75145 17.9581 6.75145 18.3484V21.2089C6.75145 21.5049 6.51145 21.7449 6.21538 21.7449H5.27405C4.97798 21.7449 4.73798 21.5049 4.73798 21.2089V18.3162C4.73798 17.9431 4.65006 17.6558 4.47423 17.4542C4.2984 17.2527 4.05395 17.1519 3.74089 17.1519C3.44498 17.1519 3.20053 17.2548 3.00754 17.4607C2.81456 17.6622 2.71807 17.9581 2.71807 18.3484V21.2089C2.71807 21.5049 2.47806 21.7449 2.182 21.7449H1.24066C0.944596 21.7449 0.70459 21.5049 0.70459 21.2089V15.9704C0.70459 15.6743 0.944596 15.4343 1.24066 15.4343H2.46282C2.5576 15.4343 2.63444 15.5112 2.63444 15.6059C2.63444 15.78 2.89651 15.8644 3.02759 15.7499C3.4009 15.4237 3.89598 15.2606 4.51283 15.2606C4.92882 15.2606 5.30407 15.3528 5.63857 15.5372C5.69978 15.5706 5.75861 15.6063 5.81506 15.6445C6.15567 15.8751 6.7139 15.8725 7.05327 15.6401C7.42269 15.3871 7.88388 15.2606 8.43686 15.2606Z" fill="black"/>
<path d="M13.5065 15.4343C13.8025 15.4343 14.0425 15.6743 14.0425 15.9704V21.2089C14.0425 21.5049 13.8025 21.7449 13.5065 21.7449H12.5651C12.2691 21.7449 12.0291 21.5049 12.0291 21.2089V15.9704C12.0291 15.6743 12.2691 15.4343 12.5651 15.4343H13.5065ZM12.1706 12.6296C12.4022 12.398 12.6873 12.2822 13.0261 12.2822C13.3649 12.2822 13.6501 12.4002 13.8817 12.636C14.1133 12.8676 14.2291 13.1528 14.2291 13.4916C14.2291 13.8304 14.1133 14.1156 13.8817 14.3472C13.6501 14.5745 13.3649 14.6881 13.0261 14.6881C12.6873 14.6881 12.4022 14.5745 12.1706 14.3472C11.939 14.1156 11.8232 13.8304 11.8232 13.4916C11.8232 13.1485 11.939 12.8612 12.1706 12.6296Z" fill="black"/>
<path d="M25.4387 13.6942C25.7347 13.6942 25.9747 13.9343 25.9747 14.2303V16.0722C25.9747 16.3683 25.7347 16.6083 25.4387 16.6083H19.9879C19.6919 16.6083 19.4519 16.8483 19.4519 17.1444V21.2346C19.4519 21.5307 19.2118 21.7707 18.9158 21.7707H16.7651C16.469 21.7707 16.229 21.5307 16.229 21.2346V8.79779C16.229 8.50172 16.469 8.26172 16.7651 8.26172H25.9018C26.1979 8.26172 26.4379 8.50173 26.4379 8.79779V10.6301C26.4379 10.9261 26.1979 11.1661 25.9018 11.1661H19.9879C19.6919 11.1661 19.4519 11.4061 19.4519 11.7022V13.1582C19.4519 13.4542 19.6919 13.6942 19.9879 13.6942H25.4387Z" fill="black"/>
<path d="M36.376 12.3048C36.672 12.3048 36.912 12.5448 36.912 12.8408V17.718C36.912 18.4385 36.793 19.0785 36.555 19.6382C36.317 20.1914 35.9889 20.6417 35.5708 20.9891C35.1527 21.33 34.6702 21.5873 34.1234 21.761C33.583 21.9347 32.9912 22.0215 32.3479 22.0215C31.7047 22.0215 31.1096 21.9347 30.5628 21.761C30.016 21.5873 29.5336 21.33 29.1154 20.9891C28.6973 20.6417 28.3692 20.1882 28.1312 19.6285C27.8932 19.0689 27.7742 18.4288 27.7742 17.7083V12.8408C27.7742 12.5448 28.0142 12.3048 28.3103 12.3048H30.2583C30.5544 12.3048 30.7944 12.5448 30.7944 12.8408V17.4478C30.7944 18.0268 30.9327 18.4642 31.2093 18.7601C31.4924 19.056 31.8719 19.204 32.3479 19.204C32.8175 19.204 33.1939 19.056 33.4769 18.7601C33.7599 18.4642 33.9015 18.0268 33.9015 17.4478V12.8408C33.9015 12.5448 34.1415 12.3048 34.4375 12.3048H36.376Z" fill="black"/>
<path d="M45.5664 12.3048C45.8625 12.3048 46.1025 12.5448 46.1025 12.8408V14.4415C46.1025 14.7376 45.8625 14.9776 45.5664 14.9776H43.4061C43.11 14.9776 42.87 15.2176 42.87 15.5137V17.7469C42.87 18.7183 43.3171 19.204 44.2113 19.204C44.521 19.204 44.8905 19.1026 45.3199 18.9C45.6102 18.7629 45.9659 18.8735 46.0958 19.1671L46.7154 20.5669C46.819 20.801 46.7439 21.0779 46.5253 21.2113C46.1472 21.442 45.7619 21.6253 45.3692 21.761C44.8545 21.9347 44.2434 22.0215 43.5358 22.0215C42.3007 22.0215 41.3776 21.6806 40.7665 20.9987C40.1554 20.3104 39.8498 19.3551 39.8498 18.1329V15.5137C39.8498 15.2176 39.6098 14.9776 39.3137 14.9776H38.6201C38.324 14.9776 38.084 14.7376 38.084 14.4415V12.8408C38.084 12.5448 38.324 12.3048 38.6201 12.3048H39.3137C39.6098 12.3048 39.8498 12.0647 39.8498 11.7687V10.0811C39.8498 9.78507 40.0898 9.54507 40.3859 9.54507H42.3339C42.63 9.54507 42.87 9.78508 42.87 10.0811V11.7687C42.87 12.0647 43.11 12.3048 43.4061 12.3048H45.5664Z" fill="black"/>
<path d="M56.311 12.3048C56.6071 12.3048 56.8471 12.5448 56.8471 12.8408V17.718C56.8471 18.4385 56.7281 19.0785 56.4901 19.6382C56.2521 20.1914 55.924 20.6417 55.5059 20.9891C55.0877 21.33 54.6053 21.5873 54.0585 21.761C53.5181 21.9347 52.9263 22.0215 52.283 22.0215C51.6397 22.0215 51.0447 21.9347 50.4979 21.761C49.9511 21.5873 49.4687 21.33 49.0505 20.9891C48.6324 20.6417 48.3043 20.1882 48.0663 19.6285C47.8283 19.0689 47.7093 18.4288 47.7093 17.7083V12.8408C47.7093 12.5448 47.9493 12.3048 48.2453 12.3048H50.1934C50.4895 12.3048 50.7295 12.5448 50.7295 12.8408V17.4478C50.7295 18.0268 50.8678 18.4642 51.1444 18.7601C51.4275 19.056 51.807 19.204 52.283 19.204C52.7526 19.204 53.1289 19.056 53.412 18.7601C53.695 18.4642 53.8366 18.0268 53.8366 17.4478V12.8408C53.8366 12.5448 54.0766 12.3048 54.3726 12.3048H56.311Z" fill="black"/>
<path d="M64.2428 12.0442C64.4618 12.0442 64.6722 12.0603 64.874 12.0924C65.1271 12.1327 65.2871 12.3731 65.2634 12.6283L65.0869 14.527C65.055 14.8707 64.7106 15.0932 64.3713 15.0294C64.0851 14.9756 63.7978 14.9486 63.5095 14.9486C62.9563 14.9486 62.5285 15.0902 62.2261 15.3732C61.9302 15.6563 61.7823 16.084 61.7823 16.6566V21.2346C61.7823 21.5307 61.5423 21.7707 61.2462 21.7707H59.2981C59.0021 21.7707 58.7621 21.5307 58.7621 21.2346V12.8408C58.7621 12.5448 59.0021 12.3048 59.2981 12.3048H61.4203C61.5509 12.3048 61.6568 12.4106 61.6568 12.5413C61.6568 12.7811 62.0162 12.8962 62.1953 12.7366C62.7129 12.275 63.3955 12.0442 64.2428 12.0442Z" fill="black"/>
<path d="M70.9301 12.0442C72.4096 12.0442 73.6351 12.517 74.6064 13.4627C75.5842 14.4083 76.0731 15.5984 76.0731 17.0329C76.0731 18.4674 75.5842 19.6575 74.6064 20.6031C73.6351 21.5487 72.4096 22.0215 70.9301 22.0215C69.457 22.0215 68.2315 21.5487 67.2537 20.6031C66.2824 19.6575 65.7967 18.4674 65.7967 17.0329C65.7967 15.5984 66.2824 14.4083 67.2537 13.4627C68.2315 12.517 69.457 12.0442 70.9301 12.0442ZM70.9301 14.8618C70.3383 14.8618 69.8494 15.0644 69.4634 15.4697C69.0774 15.875 68.8844 16.396 68.8844 17.0329C68.8844 17.6697 69.0774 18.1908 69.4634 18.5961C69.8494 19.0013 70.3383 19.204 70.9301 19.204C71.5283 19.204 72.0204 19.0013 72.4064 18.5961C72.7924 18.1908 72.9854 17.6697 72.9854 17.0329C72.9854 16.396 72.7924 15.875 72.4064 15.4697C72.0204 15.0644 71.5283 14.8618 70.9301 14.8618Z" fill="black"/>
<path d="M87.626 17.437C87.6153 17.7251 87.3785 17.958 87.0901 17.958H80.0141C79.7048 17.958 79.4562 18.22 79.5107 18.5244C79.65 19.3007 79.9749 19.9546 80.4856 20.4861C81.116 21.1423 81.9329 21.4704 82.9365 21.4704C83.6698 21.4704 84.3131 21.2838 84.8663 20.9107C85.3114 20.6002 85.6483 20.2146 85.8768 19.7542C85.9778 19.5508 86.176 19.4054 86.4031 19.4054H86.73C87.0896 19.4054 87.3475 19.754 87.1952 20.0798C86.8788 20.7566 86.4177 21.3294 85.8119 21.7984C85.0143 22.4031 84.0493 22.7055 82.9172 22.7055C81.4247 22.7055 80.2411 22.2101 79.3662 21.2195C78.5042 20.216 78.0732 18.9937 78.0732 17.5528C78.0732 16.1375 78.5171 14.9282 79.4048 13.9246C80.3054 12.9211 81.4698 12.4194 82.8979 12.4194C84.326 12.4194 85.471 12.9018 86.333 13.8667C87.195 14.8188 87.626 16.0089 87.626 17.437ZM82.8979 13.6545C81.9715 13.6545 81.1996 13.9568 80.582 14.5615C80.1025 15.0211 79.7742 15.5816 79.5972 16.2429C79.5138 16.5544 79.7668 16.8387 80.0893 16.8387H85.6674C85.9831 16.8387 86.2343 16.5657 86.1653 16.2576C86.0089 15.5588 85.6917 14.9805 85.2137 14.5229C84.6219 13.9439 83.8499 13.6545 82.8979 13.6545Z" fill="black"/>
<path d="M98.1404 16.7422V21.9378C98.1404 22.2339 97.9004 22.4739 97.6043 22.4739H97.3063C97.0102 22.4739 96.7702 22.2339 96.7702 21.9378V16.472C96.7702 15.5843 96.5643 14.8896 96.1526 14.3878C95.7538 13.8732 95.1362 13.6159 94.3 13.6159C93.4766 13.6159 92.8011 13.886 92.2736 14.4264C91.7461 14.9668 91.4824 15.7001 91.4824 16.6264V21.9378C91.4824 22.2339 91.2424 22.4739 90.9463 22.4739H90.6483C90.3522 22.4739 90.1122 22.2339 90.1122 21.9378V13.187C90.1122 12.8909 90.3522 12.6509 90.6483 12.6509H91.1191C91.2877 12.6509 91.4245 12.7877 91.4245 12.9564C91.4245 13.273 91.9231 13.4257 92.1608 13.2166C92.765 12.6851 93.5553 12.4194 94.5316 12.4194C95.68 12.4194 96.5624 12.7625 97.1787 13.4487C97.4685 13.7714 98.0613 13.8073 98.3783 13.5112C98.586 13.3172 98.8219 13.1398 99.086 12.979C99.6778 12.6059 100.379 12.4194 101.19 12.4194C102.335 12.4194 103.216 12.7796 103.833 13.5001C104.464 14.2077 104.779 15.1083 104.779 16.2019V21.9378C104.779 22.2339 104.539 22.4739 104.243 22.4739H103.945C103.649 22.4739 103.409 22.2339 103.409 21.9378V16.472C103.409 15.5972 103.203 14.9024 102.791 14.3878C102.392 13.8732 101.781 13.6159 100.958 13.6159C100.147 13.6159 99.472 13.886 98.9316 14.4264C98.4041 14.9668 98.1404 15.7387 98.1404 16.7422Z" fill="black"/>
<path d="M110.724 22.1855C110.24 21.9139 109.29 22.2371 109.29 22.7919V25.9519C109.29 26.248 109.05 26.488 108.754 26.488H108.456C108.16 26.488 107.92 26.248 107.92 25.9519V13.187C107.92 12.8909 108.16 12.6509 108.456 12.6509H108.854C109.063 12.6509 109.232 12.8203 109.232 13.0291C109.232 13.4178 109.835 13.6069 110.13 13.354C110.858 12.7309 111.8 12.4194 112.957 12.4194C114.41 12.4194 115.549 12.9211 116.373 13.9246C117.196 14.9153 117.608 16.1311 117.608 17.5721C117.608 19.0001 117.196 20.216 116.373 21.2195C115.549 22.2101 114.41 22.7055 112.957 22.7055C112.086 22.7055 111.341 22.5321 110.724 22.1855ZM109.251 17.5721C109.251 18.6785 109.56 19.6048 110.178 20.351C110.795 21.0972 111.638 21.4704 112.706 21.4704C113.774 21.4704 114.623 21.0972 115.253 20.351C115.896 19.6048 116.218 18.6785 116.218 17.5721C116.218 16.4527 115.896 15.52 115.253 14.7738C114.623 14.0276 113.774 13.6545 112.706 13.6545C111.638 13.6545 110.795 14.0276 110.178 14.7738C109.56 15.5071 109.251 16.4399 109.251 17.5721Z" fill="black"/>
<path d="M121.463 21.9378C121.463 22.2339 121.222 22.4739 120.926 22.4739H120.628C120.332 22.4739 120.092 22.2339 120.092 21.9378V8.53607C120.092 8.24001 120.332 8 120.628 8H120.926C121.222 8 121.463 8.24001 121.463 8.53607V21.9378Z" fill="black"/>
<path d="M133.527 17.437C133.516 17.7251 133.279 17.958 132.991 17.958H125.915C125.606 17.958 125.357 18.22 125.412 18.5244C125.551 19.3007 125.876 19.9546 126.386 20.4861C127.017 21.1423 127.834 21.4704 128.837 21.4704C129.571 21.4704 130.214 21.2838 130.767 20.9107C131.212 20.6002 131.549 20.2146 131.778 19.7542C131.879 19.5508 132.077 19.4054 132.304 19.4054H132.631C132.991 19.4054 133.248 19.754 133.096 20.0798C132.78 20.7566 132.319 21.3294 131.713 21.7984C130.915 22.4031 129.95 22.7055 128.818 22.7055C127.326 22.7055 126.142 22.2101 125.267 21.2195C124.405 20.216 123.974 18.9937 123.974 17.5528C123.974 16.1375 124.418 14.9282 125.306 13.9246C126.206 12.9211 127.371 12.4194 128.799 12.4194C130.227 12.4194 131.372 12.9018 132.234 13.8667C133.096 14.8188 133.527 16.0089 133.527 17.437ZM128.799 13.6545C127.872 13.6545 127.101 13.9568 126.483 14.5615C126.003 15.0211 125.675 15.5816 125.498 16.2429C125.415 16.5544 125.668 16.8387 125.99 16.8387H131.568C131.884 16.8387 132.135 16.5657 132.066 16.2576C131.91 15.5588 131.593 14.9805 131.115 14.5229C130.523 13.9439 129.751 13.6545 128.799 13.6545Z" fill="black"/>
<path d="M140.278 22.7055C138.786 22.7055 137.576 22.2037 136.65 21.2002C135.737 20.1838 135.28 18.9744 135.28 17.5721C135.28 16.1568 135.737 14.9475 136.65 13.9439C137.576 12.9276 138.786 12.4194 140.278 12.4194C141.783 12.4194 142.993 12.9276 143.906 13.9439C144.833 14.9475 145.296 16.1568 145.296 17.5721C145.296 18.9744 144.833 20.1838 143.906 21.2002C142.993 22.2037 141.783 22.7055 140.278 22.7055ZM136.669 17.5721C136.669 18.6914 137.004 19.6241 137.673 20.3703C138.342 21.1037 139.21 21.4704 140.278 21.4704C141.359 21.4704 142.234 21.1037 142.903 20.3703C143.572 19.6241 143.906 18.6914 143.906 17.5721C143.906 16.4399 143.572 15.5071 142.903 14.7738C142.234 14.0276 141.359 13.6545 140.278 13.6545C139.197 13.6545 138.323 14.0276 137.654 14.7738C136.997 15.5071 136.669 16.4399 136.669 17.5721Z" fill="black"/>
</svg>
